<mxfile host="app.diagrams.net" modified="2022-11-04T22:04:51.145Z" agent="5.0 (Windows NT 10.0; Win64; x64) AppleWebKit/537.36 (KHTML, like Gecko) Chrome/107.0.0.0 Safari/537.36" etag="9Go2l0U6qMUQPt677bf_" version="20.5.1" type="github">
  <diagram id="voFs1cuZO9YIWc2jyn0K" name="Страница 1">
    <mxGraphModel dx="1185" dy="1425" grid="1" gridSize="10" guides="1" tooltips="1" connect="1" arrows="1" fold="1" page="1" pageScale="1" pageWidth="4681" pageHeight="3300" math="0" shadow="0">
      <root>
        <mxCell id="0" />
        <mxCell id="1" parent="0" />
        <mxCell id="1ylkWFcsWydQvVdOaWhc-76" value="" style="rounded=0;whiteSpace=wrap;html=1;fillColor=none;" vertex="1" parent="1">
          <mxGeometry x="45" y="1270" width="852" height="790" as="geometry" />
        </mxCell>
        <mxCell id="LB4oUW9Qehg8nWZua1mU-1" value="" style="sketch=0;points=[[0.5,0,0],[1,0.5,0],[0.5,1,0],[0,0.5,0],[0.145,0.145,0],[0.8555,0.145,0],[0.855,0.8555,0],[0.145,0.855,0]];verticalLabelPosition=bottom;html=1;verticalAlign=top;aspect=fixed;align=center;pointerEvents=1;shape=mxgraph.cisco19.rect;prIcon=router;fillColor=#FAFAFA;strokeColor=#005073;" parent="1" vertex="1">
          <mxGeometry x="331" y="65" width="50" height="50" as="geometry" />
        </mxCell>
        <mxCell id="LB4oUW9Qehg8nWZua1mU-2" value="" style="sketch=0;points=[[0.5,0,0],[1,0.5,0],[0.5,1,0],[0,0.5,0],[0.145,0.145,0],[0.8555,0.145,0],[0.855,0.8555,0],[0.145,0.855,0]];verticalLabelPosition=bottom;html=1;verticalAlign=top;aspect=fixed;align=center;pointerEvents=1;shape=mxgraph.cisco19.rect;prIcon=router;fillColor=#FAFAFA;strokeColor=#005073;" parent="1" vertex="1">
          <mxGeometry x="629" y="235" width="50" height="50" as="geometry" />
        </mxCell>
        <mxCell id="LB4oUW9Qehg8nWZua1mU-3" value="" style="sketch=0;points=[[0.5,0,0],[1,0.5,0],[0.5,1,0],[0,0.5,0],[0.145,0.145,0],[0.8555,0.145,0],[0.855,0.8555,0],[0.145,0.855,0]];verticalLabelPosition=bottom;html=1;verticalAlign=top;aspect=fixed;align=center;pointerEvents=1;shape=mxgraph.cisco19.rect;prIcon=router;fillColor=#FAFAFA;strokeColor=#005073;" parent="1" vertex="1">
          <mxGeometry x="331" y="405" width="50" height="50" as="geometry" />
        </mxCell>
        <mxCell id="LB4oUW9Qehg8nWZua1mU-4" value="" style="sketch=0;points=[[0.5,0,0],[1,0.5,0],[0.5,1,0],[0,0.5,0],[0.145,0.145,0],[0.8555,0.145,0],[0.855,0.8555,0],[0.145,0.855,0]];verticalLabelPosition=bottom;html=1;verticalAlign=top;aspect=fixed;align=center;pointerEvents=1;shape=mxgraph.cisco19.rect;prIcon=router;fillColor=#FAFAFA;strokeColor=#005073;" parent="1" vertex="1">
          <mxGeometry x="629" y="405" width="50" height="50" as="geometry" />
        </mxCell>
        <mxCell id="LB4oUW9Qehg8nWZua1mU-9" value="" style="sketch=0;points=[[0.5,0,0],[1,0.5,0],[0.5,1,0],[0,0.5,0],[0.145,0.145,0],[0.8555,0.145,0],[0.855,0.8555,0],[0.145,0.855,0]];verticalLabelPosition=bottom;html=1;verticalAlign=top;aspect=fixed;align=center;pointerEvents=1;shape=mxgraph.cisco19.rect;prIcon=router;fillColor=#FAFAFA;strokeColor=#005073;" parent="1" vertex="1">
          <mxGeometry x="331" y="576" width="50" height="50" as="geometry" />
        </mxCell>
        <mxCell id="LB4oUW9Qehg8nWZua1mU-10" value="" style="sketch=0;points=[[0.5,0,0],[1,0.5,0],[0.5,1,0],[0,0.5,0],[0.145,0.145,0],[0.8555,0.145,0],[0.855,0.8555,0],[0.145,0.855,0]];verticalLabelPosition=bottom;html=1;verticalAlign=top;aspect=fixed;align=center;pointerEvents=1;shape=mxgraph.cisco19.rect;prIcon=router;fillColor=#FAFAFA;strokeColor=#005073;" parent="1" vertex="1">
          <mxGeometry x="629" y="576" width="50" height="50" as="geometry" />
        </mxCell>
        <mxCell id="LB4oUW9Qehg8nWZua1mU-11" value="" style="endArrow=none;html=1;rounded=0;exitX=1;exitY=0.5;exitDx=0;exitDy=0;exitPerimeter=0;entryX=0;entryY=0.5;entryDx=0;entryDy=0;entryPerimeter=0;startArrow=none;" parent="1" source="LB4oUW9Qehg8nWZua1mU-13" target="LB4oUW9Qehg8nWZua1mU-10" edge="1">
          <mxGeometry width="50" height="50" relative="1" as="geometry">
            <mxPoint x="371" y="666" as="sourcePoint" />
            <mxPoint x="421" y="616" as="targetPoint" />
          </mxGeometry>
        </mxCell>
        <mxCell id="LB4oUW9Qehg8nWZua1mU-14" value="" style="endArrow=none;html=1;rounded=0;exitX=0.5;exitY=0;exitDx=0;exitDy=0;exitPerimeter=0;entryX=0.5;entryY=1;entryDx=0;entryDy=0;entryPerimeter=0;startArrow=none;" parent="1" source="LB4oUW9Qehg8nWZua1mU-16" target="LB4oUW9Qehg8nWZua1mU-3" edge="1">
          <mxGeometry width="50" height="50" relative="1" as="geometry">
            <mxPoint x="511" y="495" as="sourcePoint" />
            <mxPoint x="561" y="445" as="targetPoint" />
          </mxGeometry>
        </mxCell>
        <mxCell id="LB4oUW9Qehg8nWZua1mU-18" value="" style="endArrow=none;html=1;rounded=0;exitX=0.8555;exitY=0.145;exitDx=0;exitDy=0;entryX=0.145;entryY=0.855;entryDx=0;entryDy=0;entryPerimeter=0;exitPerimeter=0;startArrow=none;" parent="1" source="W7klxGYHlzmc_tSxLxQi-7" target="LB4oUW9Qehg8nWZua1mU-4" edge="1">
          <mxGeometry width="50" height="50" relative="1" as="geometry">
            <mxPoint x="511" y="495" as="sourcePoint" />
            <mxPoint x="561" y="445" as="targetPoint" />
          </mxGeometry>
        </mxCell>
        <mxCell id="LB4oUW9Qehg8nWZua1mU-12" value="e0/4" style="text;html=1;strokeColor=none;fillColor=none;align=left;verticalAlign=middle;whiteSpace=wrap;rounded=0;" parent="1" vertex="1">
          <mxGeometry x="391" y="586" width="30" height="30" as="geometry" />
        </mxCell>
        <mxCell id="LB4oUW9Qehg8nWZua1mU-19" value="" style="endArrow=none;html=1;rounded=0;exitX=1;exitY=0.5;exitDx=0;exitDy=0;exitPerimeter=0;entryX=0;entryY=0.5;entryDx=0;entryDy=0;entryPerimeter=0;" parent="1" source="LB4oUW9Qehg8nWZua1mU-9" target="LB4oUW9Qehg8nWZua1mU-12" edge="1">
          <mxGeometry width="50" height="50" relative="1" as="geometry">
            <mxPoint x="381" y="601" as="sourcePoint" />
            <mxPoint x="629" y="601" as="targetPoint" />
          </mxGeometry>
        </mxCell>
        <mxCell id="LB4oUW9Qehg8nWZua1mU-16" value="e0/0" style="text;html=1;strokeColor=none;fillColor=none;align=center;verticalAlign=middle;whiteSpace=wrap;rounded=0;" parent="1" vertex="1">
          <mxGeometry x="341" y="462" width="30" height="20" as="geometry" />
        </mxCell>
        <mxCell id="LB4oUW9Qehg8nWZua1mU-21" value="" style="endArrow=none;html=1;rounded=0;exitX=0.5;exitY=0;exitDx=0;exitDy=0;exitPerimeter=0;entryX=0.5;entryY=1;entryDx=0;entryDy=0;entryPerimeter=0;startArrow=none;" parent="1" source="LB4oUW9Qehg8nWZua1mU-17" target="LB4oUW9Qehg8nWZua1mU-16" edge="1">
          <mxGeometry width="50" height="50" relative="1" as="geometry">
            <mxPoint x="356" y="576" as="sourcePoint" />
            <mxPoint x="356" y="455" as="targetPoint" />
          </mxGeometry>
        </mxCell>
        <mxCell id="LB4oUW9Qehg8nWZua1mU-17" value="e0/2" style="text;html=1;strokeColor=none;fillColor=none;align=center;verticalAlign=middle;whiteSpace=wrap;rounded=0;" parent="1" vertex="1">
          <mxGeometry x="341" y="548" width="30" height="20" as="geometry" />
        </mxCell>
        <mxCell id="LB4oUW9Qehg8nWZua1mU-23" value="" style="endArrow=none;html=1;rounded=0;exitX=0.5;exitY=0;exitDx=0;exitDy=0;exitPerimeter=0;entryX=0.5;entryY=1;entryDx=0;entryDy=0;entryPerimeter=0;" parent="1" source="LB4oUW9Qehg8nWZua1mU-9" target="LB4oUW9Qehg8nWZua1mU-17" edge="1">
          <mxGeometry width="50" height="50" relative="1" as="geometry">
            <mxPoint x="356" y="576" as="sourcePoint" />
            <mxPoint x="356" y="485" as="targetPoint" />
          </mxGeometry>
        </mxCell>
        <mxCell id="LB4oUW9Qehg8nWZua1mU-13" value="e0/4" style="text;html=1;strokeColor=none;fillColor=none;align=right;verticalAlign=middle;whiteSpace=wrap;rounded=0;" parent="1" vertex="1">
          <mxGeometry x="591" y="589.5" width="30" height="23.5" as="geometry" />
        </mxCell>
        <mxCell id="LB4oUW9Qehg8nWZua1mU-24" value="" style="endArrow=none;html=1;rounded=0;exitX=1;exitY=0.5;exitDx=0;exitDy=0;exitPerimeter=0;entryX=0;entryY=0.5;entryDx=0;entryDy=0;entryPerimeter=0;startArrow=none;" parent="1" source="LB4oUW9Qehg8nWZua1mU-12" target="LB4oUW9Qehg8nWZua1mU-13" edge="1">
          <mxGeometry width="50" height="50" relative="1" as="geometry">
            <mxPoint x="421" y="600" as="sourcePoint" />
            <mxPoint x="629" y="601" as="targetPoint" />
          </mxGeometry>
        </mxCell>
        <mxCell id="W7klxGYHlzmc_tSxLxQi-5" value="e0/3" style="text;html=1;strokeColor=none;fillColor=none;align=center;verticalAlign=middle;whiteSpace=wrap;rounded=0;" parent="1" vertex="1">
          <mxGeometry x="391" y="555" width="40" height="21" as="geometry" />
        </mxCell>
        <mxCell id="W7klxGYHlzmc_tSxLxQi-6" value="" style="endArrow=none;html=1;rounded=0;exitX=0.8555;exitY=0.145;exitDx=0;exitDy=0;entryX=0.145;entryY=0.855;entryDx=0;entryDy=0;entryPerimeter=0;exitPerimeter=0;" parent="1" source="LB4oUW9Qehg8nWZua1mU-9" target="W7klxGYHlzmc_tSxLxQi-5" edge="1">
          <mxGeometry width="50" height="50" relative="1" as="geometry">
            <mxPoint x="373.775" y="583.25" as="sourcePoint" />
            <mxPoint x="636.25" y="447.75" as="targetPoint" />
          </mxGeometry>
        </mxCell>
        <mxCell id="W7klxGYHlzmc_tSxLxQi-7" value="e0/1" style="text;html=1;strokeColor=none;fillColor=none;align=center;verticalAlign=middle;whiteSpace=wrap;rounded=0;" parent="1" vertex="1">
          <mxGeometry x="581" y="455" width="40" height="21" as="geometry" />
        </mxCell>
        <mxCell id="W7klxGYHlzmc_tSxLxQi-8" value="" style="endArrow=none;html=1;rounded=0;exitX=0.8555;exitY=0.145;exitDx=0;exitDy=0;entryX=0.145;entryY=0.855;entryDx=0;entryDy=0;entryPerimeter=0;exitPerimeter=0;startArrow=none;" parent="1" source="W7klxGYHlzmc_tSxLxQi-5" target="W7klxGYHlzmc_tSxLxQi-7" edge="1">
          <mxGeometry width="50" height="50" relative="1" as="geometry">
            <mxPoint x="425.22" y="558.045" as="sourcePoint" />
            <mxPoint x="636.25" y="447.7499999999999" as="targetPoint" />
          </mxGeometry>
        </mxCell>
        <mxCell id="W7klxGYHlzmc_tSxLxQi-9" value="" style="endArrow=none;html=1;rounded=0;exitX=1;exitY=0.5;exitDx=0;exitDy=0;exitPerimeter=0;entryX=0;entryY=0.5;entryDx=0;entryDy=0;entryPerimeter=0;startArrow=none;" parent="1" source="W7klxGYHlzmc_tSxLxQi-12" edge="1">
          <mxGeometry width="50" height="50" relative="1" as="geometry">
            <mxPoint x="371" y="495" as="sourcePoint" />
            <mxPoint x="629" y="430" as="targetPoint" />
          </mxGeometry>
        </mxCell>
        <mxCell id="W7klxGYHlzmc_tSxLxQi-10" value="e0/4" style="text;html=1;strokeColor=none;fillColor=none;align=left;verticalAlign=middle;whiteSpace=wrap;rounded=0;" parent="1" vertex="1">
          <mxGeometry x="391" y="415" width="30" height="30" as="geometry" />
        </mxCell>
        <mxCell id="W7klxGYHlzmc_tSxLxQi-11" value="" style="endArrow=none;html=1;rounded=0;exitX=1;exitY=0.5;exitDx=0;exitDy=0;exitPerimeter=0;entryX=0;entryY=0.5;entryDx=0;entryDy=0;entryPerimeter=0;" parent="1" target="W7klxGYHlzmc_tSxLxQi-10" edge="1">
          <mxGeometry width="50" height="50" relative="1" as="geometry">
            <mxPoint x="381" y="430" as="sourcePoint" />
            <mxPoint x="629" y="430" as="targetPoint" />
          </mxGeometry>
        </mxCell>
        <mxCell id="W7klxGYHlzmc_tSxLxQi-12" value="e0/4" style="text;html=1;strokeColor=none;fillColor=none;align=right;verticalAlign=middle;whiteSpace=wrap;rounded=0;" parent="1" vertex="1">
          <mxGeometry x="591" y="418.5" width="30" height="23.5" as="geometry" />
        </mxCell>
        <mxCell id="W7klxGYHlzmc_tSxLxQi-13" value="" style="endArrow=none;html=1;rounded=0;exitX=1;exitY=0.5;exitDx=0;exitDy=0;exitPerimeter=0;entryX=0;entryY=0.5;entryDx=0;entryDy=0;entryPerimeter=0;startArrow=none;" parent="1" source="W7klxGYHlzmc_tSxLxQi-10" target="W7klxGYHlzmc_tSxLxQi-12" edge="1">
          <mxGeometry width="50" height="50" relative="1" as="geometry">
            <mxPoint x="421" y="429" as="sourcePoint" />
            <mxPoint x="629" y="430" as="targetPoint" />
          </mxGeometry>
        </mxCell>
        <mxCell id="W7klxGYHlzmc_tSxLxQi-14" value="" style="endArrow=none;html=1;rounded=0;exitX=0.145;exitY=0.145;exitDx=0;exitDy=0;exitPerimeter=0;entryX=0.855;entryY=0.8555;entryDx=0;entryDy=0;entryPerimeter=0;startArrow=none;" parent="1" source="W7klxGYHlzmc_tSxLxQi-15" target="LB4oUW9Qehg8nWZua1mU-3" edge="1">
          <mxGeometry width="50" height="50" relative="1" as="geometry">
            <mxPoint x="411" y="505" as="sourcePoint" />
            <mxPoint x="461" y="455" as="targetPoint" />
          </mxGeometry>
        </mxCell>
        <mxCell id="W7klxGYHlzmc_tSxLxQi-15" value="e0/1" style="text;html=1;strokeColor=none;fillColor=none;align=center;verticalAlign=middle;whiteSpace=wrap;rounded=0;" parent="1" vertex="1">
          <mxGeometry x="386" y="455" width="40" height="21" as="geometry" />
        </mxCell>
        <mxCell id="W7klxGYHlzmc_tSxLxQi-16" value="" style="endArrow=none;html=1;rounded=0;exitX=0.145;exitY=0.145;exitDx=0;exitDy=0;exitPerimeter=0;entryX=0.855;entryY=0.8555;entryDx=0;entryDy=0;entryPerimeter=0;startArrow=none;" parent="1" source="W7klxGYHlzmc_tSxLxQi-17" target="W7klxGYHlzmc_tSxLxQi-15" edge="1">
          <mxGeometry width="50" height="50" relative="1" as="geometry">
            <mxPoint x="636.25" y="583.25" as="sourcePoint" />
            <mxPoint x="373.75" y="447.775" as="targetPoint" />
          </mxGeometry>
        </mxCell>
        <mxCell id="W7klxGYHlzmc_tSxLxQi-17" value="e0/3" style="text;html=1;strokeColor=none;fillColor=none;align=center;verticalAlign=middle;whiteSpace=wrap;rounded=0;" parent="1" vertex="1">
          <mxGeometry x="586" y="555" width="40" height="21" as="geometry" />
        </mxCell>
        <mxCell id="W7klxGYHlzmc_tSxLxQi-18" value="" style="endArrow=none;html=1;rounded=0;exitX=0.145;exitY=0.145;exitDx=0;exitDy=0;exitPerimeter=0;entryX=0.855;entryY=0.8555;entryDx=0;entryDy=0;entryPerimeter=0;" parent="1" source="LB4oUW9Qehg8nWZua1mU-10" target="W7klxGYHlzmc_tSxLxQi-17" edge="1">
          <mxGeometry width="50" height="50" relative="1" as="geometry">
            <mxPoint x="636.25" y="583.25" as="sourcePoint" />
            <mxPoint x="420.2" y="472.9654999999999" as="targetPoint" />
          </mxGeometry>
        </mxCell>
        <mxCell id="W7klxGYHlzmc_tSxLxQi-19" value="" style="endArrow=none;html=1;rounded=0;exitX=0.5;exitY=0;exitDx=0;exitDy=0;exitPerimeter=0;entryX=0.5;entryY=1;entryDx=0;entryDy=0;entryPerimeter=0;startArrow=none;" parent="1" source="W7klxGYHlzmc_tSxLxQi-20" edge="1">
          <mxGeometry width="50" height="50" relative="1" as="geometry">
            <mxPoint x="810" y="495" as="sourcePoint" />
            <mxPoint x="655" y="455" as="targetPoint" />
          </mxGeometry>
        </mxCell>
        <mxCell id="W7klxGYHlzmc_tSxLxQi-20" value="e0/0" style="text;html=1;strokeColor=none;fillColor=none;align=center;verticalAlign=middle;whiteSpace=wrap;rounded=0;" parent="1" vertex="1">
          <mxGeometry x="640" y="462" width="30" height="20" as="geometry" />
        </mxCell>
        <mxCell id="W7klxGYHlzmc_tSxLxQi-21" value="" style="endArrow=none;html=1;rounded=0;exitX=0.5;exitY=0;exitDx=0;exitDy=0;exitPerimeter=0;entryX=0.5;entryY=1;entryDx=0;entryDy=0;entryPerimeter=0;startArrow=none;" parent="1" source="W7klxGYHlzmc_tSxLxQi-22" target="W7klxGYHlzmc_tSxLxQi-20" edge="1">
          <mxGeometry width="50" height="50" relative="1" as="geometry">
            <mxPoint x="655" y="576" as="sourcePoint" />
            <mxPoint x="655" y="455" as="targetPoint" />
          </mxGeometry>
        </mxCell>
        <mxCell id="W7klxGYHlzmc_tSxLxQi-22" value="e0/2" style="text;html=1;strokeColor=none;fillColor=none;align=center;verticalAlign=middle;whiteSpace=wrap;rounded=0;" parent="1" vertex="1">
          <mxGeometry x="640" y="548" width="30" height="20" as="geometry" />
        </mxCell>
        <mxCell id="W7klxGYHlzmc_tSxLxQi-23" value="" style="endArrow=none;html=1;rounded=0;exitX=0.5;exitY=0;exitDx=0;exitDy=0;exitPerimeter=0;entryX=0.5;entryY=1;entryDx=0;entryDy=0;entryPerimeter=0;" parent="1" target="W7klxGYHlzmc_tSxLxQi-22" edge="1">
          <mxGeometry width="50" height="50" relative="1" as="geometry">
            <mxPoint x="655" y="576" as="sourcePoint" />
            <mxPoint x="655" y="485" as="targetPoint" />
          </mxGeometry>
        </mxCell>
        <mxCell id="W7klxGYHlzmc_tSxLxQi-25" value="" style="endArrow=none;html=1;rounded=0;exitX=0.5;exitY=0;exitDx=0;exitDy=0;exitPerimeter=0;entryX=0.5;entryY=1;entryDx=0;entryDy=0;entryPerimeter=0;startArrow=none;" parent="1" source="W7klxGYHlzmc_tSxLxQi-26" edge="1">
          <mxGeometry width="50" height="50" relative="1" as="geometry">
            <mxPoint x="511" y="665" as="sourcePoint" />
            <mxPoint x="356" y="625" as="targetPoint" />
          </mxGeometry>
        </mxCell>
        <mxCell id="W7klxGYHlzmc_tSxLxQi-26" value="e0/0" style="text;html=1;strokeColor=none;fillColor=none;align=center;verticalAlign=middle;whiteSpace=wrap;rounded=0;" parent="1" vertex="1">
          <mxGeometry x="341" y="632" width="30" height="20" as="geometry" />
        </mxCell>
        <mxCell id="W7klxGYHlzmc_tSxLxQi-27" value="" style="endArrow=none;html=1;rounded=0;exitX=0.5;exitY=0;exitDx=0;exitDy=0;exitPerimeter=0;entryX=0.5;entryY=1;entryDx=0;entryDy=0;entryPerimeter=0;startArrow=none;" parent="1" source="W7klxGYHlzmc_tSxLxQi-28" target="W7klxGYHlzmc_tSxLxQi-26" edge="1">
          <mxGeometry width="50" height="50" relative="1" as="geometry">
            <mxPoint x="356" y="746" as="sourcePoint" />
            <mxPoint x="356" y="625" as="targetPoint" />
          </mxGeometry>
        </mxCell>
        <mxCell id="W7klxGYHlzmc_tSxLxQi-28" value="e1/0" style="text;html=1;strokeColor=none;fillColor=none;align=center;verticalAlign=middle;whiteSpace=wrap;rounded=0;" parent="1" vertex="1">
          <mxGeometry x="341" y="718" width="30" height="20" as="geometry" />
        </mxCell>
        <mxCell id="W7klxGYHlzmc_tSxLxQi-29" value="" style="endArrow=none;html=1;rounded=0;exitX=0.5;exitY=0;exitDx=0;exitDy=0;exitPerimeter=0;entryX=0.5;entryY=1;entryDx=0;entryDy=0;entryPerimeter=0;" parent="1" target="W7klxGYHlzmc_tSxLxQi-28" edge="1">
          <mxGeometry width="50" height="50" relative="1" as="geometry">
            <mxPoint x="356" y="746" as="sourcePoint" />
            <mxPoint x="356" y="655" as="targetPoint" />
          </mxGeometry>
        </mxCell>
        <mxCell id="W7klxGYHlzmc_tSxLxQi-31" value="" style="endArrow=none;html=1;rounded=0;exitX=0.5;exitY=0;exitDx=0;exitDy=0;exitPerimeter=0;entryX=0.5;entryY=1;entryDx=0;entryDy=0;entryPerimeter=0;startArrow=none;" parent="1" source="W7klxGYHlzmc_tSxLxQi-32" edge="1">
          <mxGeometry width="50" height="50" relative="1" as="geometry">
            <mxPoint x="809" y="665" as="sourcePoint" />
            <mxPoint x="654.0000000000001" y="625" as="targetPoint" />
          </mxGeometry>
        </mxCell>
        <mxCell id="W7klxGYHlzmc_tSxLxQi-32" value="e0/0" style="text;html=1;strokeColor=none;fillColor=none;align=center;verticalAlign=middle;whiteSpace=wrap;rounded=0;" parent="1" vertex="1">
          <mxGeometry x="639" y="632" width="30" height="20" as="geometry" />
        </mxCell>
        <mxCell id="W7klxGYHlzmc_tSxLxQi-33" value="" style="endArrow=none;html=1;rounded=0;exitX=0.5;exitY=0;exitDx=0;exitDy=0;exitPerimeter=0;entryX=0.5;entryY=1;entryDx=0;entryDy=0;entryPerimeter=0;startArrow=none;" parent="1" source="W7klxGYHlzmc_tSxLxQi-34" target="W7klxGYHlzmc_tSxLxQi-32" edge="1">
          <mxGeometry width="50" height="50" relative="1" as="geometry">
            <mxPoint x="654" y="746" as="sourcePoint" />
            <mxPoint x="654" y="625" as="targetPoint" />
          </mxGeometry>
        </mxCell>
        <mxCell id="W7klxGYHlzmc_tSxLxQi-34" value="e1/0" style="text;html=1;strokeColor=none;fillColor=none;align=center;verticalAlign=middle;whiteSpace=wrap;rounded=0;" parent="1" vertex="1">
          <mxGeometry x="639" y="718" width="30" height="20" as="geometry" />
        </mxCell>
        <mxCell id="W7klxGYHlzmc_tSxLxQi-35" value="" style="endArrow=none;html=1;rounded=0;exitX=0.5;exitY=0;exitDx=0;exitDy=0;exitPerimeter=0;entryX=0.5;entryY=1;entryDx=0;entryDy=0;entryPerimeter=0;" parent="1" target="W7klxGYHlzmc_tSxLxQi-34" edge="1">
          <mxGeometry width="50" height="50" relative="1" as="geometry">
            <mxPoint x="654.0000000000001" y="746.0000000000002" as="sourcePoint" />
            <mxPoint x="654" y="655" as="targetPoint" />
          </mxGeometry>
        </mxCell>
        <mxCell id="W7klxGYHlzmc_tSxLxQi-36" value="" style="endArrow=none;html=1;rounded=0;exitX=1;exitY=0.5;exitDx=0;exitDy=0;exitPerimeter=0;entryX=0;entryY=0.5;entryDx=0;entryDy=0;entryPerimeter=0;startArrow=none;" parent="1" source="W7klxGYHlzmc_tSxLxQi-39" edge="1">
          <mxGeometry width="50" height="50" relative="1" as="geometry">
            <mxPoint x="371" y="858" as="sourcePoint" />
            <mxPoint x="629" y="793" as="targetPoint" />
          </mxGeometry>
        </mxCell>
        <mxCell id="W7klxGYHlzmc_tSxLxQi-37" value="e0/2" style="text;html=1;strokeColor=none;fillColor=none;align=left;verticalAlign=middle;whiteSpace=wrap;rounded=0;" parent="1" vertex="1">
          <mxGeometry x="391" y="778" width="30" height="30" as="geometry" />
        </mxCell>
        <mxCell id="W7klxGYHlzmc_tSxLxQi-38" value="" style="endArrow=none;html=1;rounded=0;exitX=1;exitY=0.5;exitDx=0;exitDy=0;exitPerimeter=0;entryX=0;entryY=0.5;entryDx=0;entryDy=0;entryPerimeter=0;" parent="1" target="W7klxGYHlzmc_tSxLxQi-37" edge="1">
          <mxGeometry width="50" height="50" relative="1" as="geometry">
            <mxPoint x="381.0000000000001" y="793" as="sourcePoint" />
            <mxPoint x="629" y="793" as="targetPoint" />
          </mxGeometry>
        </mxCell>
        <mxCell id="W7klxGYHlzmc_tSxLxQi-39" value="e0/2" style="text;html=1;strokeColor=none;fillColor=none;align=right;verticalAlign=middle;whiteSpace=wrap;rounded=0;" parent="1" vertex="1">
          <mxGeometry x="591" y="781.5" width="30" height="23.5" as="geometry" />
        </mxCell>
        <mxCell id="W7klxGYHlzmc_tSxLxQi-40" value="" style="endArrow=none;html=1;rounded=0;exitX=1;exitY=0.5;exitDx=0;exitDy=0;exitPerimeter=0;entryX=0;entryY=0.5;entryDx=0;entryDy=0;entryPerimeter=0;startArrow=none;" parent="1" source="W7klxGYHlzmc_tSxLxQi-37" target="W7klxGYHlzmc_tSxLxQi-39" edge="1">
          <mxGeometry width="50" height="50" relative="1" as="geometry">
            <mxPoint x="421" y="792" as="sourcePoint" />
            <mxPoint x="629" y="793" as="targetPoint" />
          </mxGeometry>
        </mxCell>
        <mxCell id="W7klxGYHlzmc_tSxLxQi-41" value="" style="endArrow=none;html=1;rounded=0;exitX=0.985;exitY=0.015;exitDx=0;exitDy=0;exitPerimeter=0;entryX=0.145;entryY=0.855;entryDx=0;entryDy=0;entryPerimeter=0;startArrow=none;" parent="1" source="W7klxGYHlzmc_tSxLxQi-44" target="LB4oUW9Qehg8nWZua1mU-10" edge="1">
          <mxGeometry width="50" height="50" relative="1" as="geometry">
            <mxPoint x="476" y="705" as="sourcePoint" />
            <mxPoint x="526" y="655" as="targetPoint" />
          </mxGeometry>
        </mxCell>
        <mxCell id="W7klxGYHlzmc_tSxLxQi-42" value="e1/1" style="text;html=1;strokeColor=none;fillColor=none;align=center;verticalAlign=middle;whiteSpace=wrap;rounded=0;" parent="1" vertex="1">
          <mxGeometry x="396" y="718" width="40" height="21" as="geometry" />
        </mxCell>
        <mxCell id="W7klxGYHlzmc_tSxLxQi-43" value="" style="endArrow=none;html=1;rounded=0;exitX=0.985;exitY=0.015;exitDx=0;exitDy=0;exitPerimeter=0;entryX=0.145;entryY=0.855;entryDx=0;entryDy=0;entryPerimeter=0;" parent="1" source="W7klxGYHlzmc_tSxLxQi-200" target="W7klxGYHlzmc_tSxLxQi-42" edge="1">
          <mxGeometry width="50" height="50" relative="1" as="geometry">
            <mxPoint x="380.25" y="769.75" as="sourcePoint" />
            <mxPoint x="636.25" y="618.7499999999999" as="targetPoint" />
          </mxGeometry>
        </mxCell>
        <mxCell id="W7klxGYHlzmc_tSxLxQi-44" value="e0/1" style="text;html=1;strokeColor=none;fillColor=none;align=center;verticalAlign=middle;whiteSpace=wrap;rounded=0;" parent="1" vertex="1">
          <mxGeometry x="581" y="626" width="40" height="21" as="geometry" />
        </mxCell>
        <mxCell id="W7klxGYHlzmc_tSxLxQi-45" value="" style="endArrow=none;html=1;rounded=0;exitX=0.985;exitY=0.015;exitDx=0;exitDy=0;exitPerimeter=0;entryX=0.145;entryY=0.855;entryDx=0;entryDy=0;entryPerimeter=0;startArrow=none;" parent="1" source="W7klxGYHlzmc_tSxLxQi-42" target="W7klxGYHlzmc_tSxLxQi-44" edge="1">
          <mxGeometry width="50" height="50" relative="1" as="geometry">
            <mxPoint x="435.4" y="718.315" as="sourcePoint" />
            <mxPoint x="636.25" y="618.7499999999999" as="targetPoint" />
          </mxGeometry>
        </mxCell>
        <mxCell id="W7klxGYHlzmc_tSxLxQi-48" value="" style="endArrow=none;html=1;rounded=0;exitX=0.015;exitY=0.015;exitDx=0;exitDy=0;exitPerimeter=0;entryX=0.855;entryY=0.8555;entryDx=0;entryDy=0;entryPerimeter=0;startArrow=none;" parent="1" source="W7klxGYHlzmc_tSxLxQi-49" target="LB4oUW9Qehg8nWZua1mU-9" edge="1">
          <mxGeometry width="50" height="50" relative="1" as="geometry">
            <mxPoint x="476" y="705" as="sourcePoint" />
            <mxPoint x="526" y="655" as="targetPoint" />
          </mxGeometry>
        </mxCell>
        <mxCell id="W7klxGYHlzmc_tSxLxQi-49" value="e0/1" style="text;html=1;strokeColor=none;fillColor=none;align=center;verticalAlign=middle;whiteSpace=wrap;rounded=0;" parent="1" vertex="1">
          <mxGeometry x="386" y="626" width="40" height="21" as="geometry" />
        </mxCell>
        <mxCell id="W7klxGYHlzmc_tSxLxQi-50" value="" style="endArrow=none;html=1;rounded=0;exitX=0.015;exitY=0.015;exitDx=0;exitDy=0;exitPerimeter=0;entryX=0.855;entryY=0.8555;entryDx=0;entryDy=0;entryPerimeter=0;startArrow=none;" parent="1" source="W7klxGYHlzmc_tSxLxQi-51" target="W7klxGYHlzmc_tSxLxQi-49" edge="1">
          <mxGeometry width="50" height="50" relative="1" as="geometry">
            <mxPoint x="629.7500000000001" y="745.75" as="sourcePoint" />
            <mxPoint x="373.75" y="618.775" as="targetPoint" />
          </mxGeometry>
        </mxCell>
        <mxCell id="W7klxGYHlzmc_tSxLxQi-51" value="e1/1" style="text;html=1;strokeColor=none;fillColor=none;align=center;verticalAlign=middle;whiteSpace=wrap;rounded=0;" parent="1" vertex="1">
          <mxGeometry x="576" y="717" width="40" height="21" as="geometry" />
        </mxCell>
        <mxCell id="W7klxGYHlzmc_tSxLxQi-52" value="" style="endArrow=none;html=1;rounded=0;exitX=0.015;exitY=0.015;exitDx=0;exitDy=0;exitPerimeter=0;entryX=0.855;entryY=0.8555;entryDx=0;entryDy=0;entryPerimeter=0;" parent="1" source="W7klxGYHlzmc_tSxLxQi-201" target="W7klxGYHlzmc_tSxLxQi-51" edge="1">
          <mxGeometry width="50" height="50" relative="1" as="geometry">
            <mxPoint x="629.75" y="769.75" as="sourcePoint" />
            <mxPoint x="420.20000000000005" y="643.9655" as="targetPoint" />
          </mxGeometry>
        </mxCell>
        <mxCell id="W7klxGYHlzmc_tSxLxQi-65" value="" style="sketch=0;points=[[0.5,0,0],[1,0.5,0],[0.5,1,0],[0,0.5,0],[0.145,0.145,0],[0.8555,0.145,0],[0.855,0.8555,0],[0.145,0.855,0]];verticalLabelPosition=bottom;html=1;verticalAlign=top;aspect=fixed;align=center;pointerEvents=1;shape=mxgraph.cisco19.rect;prIcon=router;fillColor=#FAFAFA;strokeColor=#005073;" parent="1" vertex="1">
          <mxGeometry x="113" y="576" width="50" height="50" as="geometry" />
        </mxCell>
        <mxCell id="W7klxGYHlzmc_tSxLxQi-109" value="" style="sketch=0;points=[[0.015,0.015,0],[0.985,0.015,0],[0.985,0.985,0],[0.015,0.985,0],[0.25,0,0],[0.5,0,0],[0.75,0,0],[1,0.25,0],[1,0.5,0],[1,0.75,0],[0.75,1,0],[0.5,1,0],[0.25,1,0],[0,0.75,0],[0,0.5,0],[0,0.25,0]];verticalLabelPosition=bottom;html=1;verticalAlign=top;aspect=fixed;align=center;pointerEvents=1;shape=mxgraph.cisco19.rect;prIcon=l2_switch;fillColor=#FAFAFA;strokeColor=#005073;" parent="1" vertex="1">
          <mxGeometry x="331" y="939" width="50" height="50" as="geometry" />
        </mxCell>
        <mxCell id="W7klxGYHlzmc_tSxLxQi-110" value="" style="endArrow=none;html=1;rounded=0;exitX=0.5;exitY=0;exitDx=0;exitDy=0;exitPerimeter=0;entryX=0.5;entryY=1;entryDx=0;entryDy=0;entryPerimeter=0;startArrow=none;" parent="1" source="W7klxGYHlzmc_tSxLxQi-111" edge="1">
          <mxGeometry width="50" height="50" relative="1" as="geometry">
            <mxPoint x="511" y="859" as="sourcePoint" />
            <mxPoint x="356" y="819" as="targetPoint" />
          </mxGeometry>
        </mxCell>
        <mxCell id="W7klxGYHlzmc_tSxLxQi-111" value="e0/0" style="text;html=1;strokeColor=none;fillColor=none;align=center;verticalAlign=middle;whiteSpace=wrap;rounded=0;" parent="1" vertex="1">
          <mxGeometry x="341" y="826" width="30" height="20" as="geometry" />
        </mxCell>
        <mxCell id="W7klxGYHlzmc_tSxLxQi-112" value="" style="endArrow=none;html=1;rounded=0;exitX=0.5;exitY=0;exitDx=0;exitDy=0;exitPerimeter=0;entryX=0.5;entryY=1;entryDx=0;entryDy=0;entryPerimeter=0;startArrow=none;" parent="1" source="W7klxGYHlzmc_tSxLxQi-113" target="W7klxGYHlzmc_tSxLxQi-111" edge="1">
          <mxGeometry width="50" height="50" relative="1" as="geometry">
            <mxPoint x="356" y="940" as="sourcePoint" />
            <mxPoint x="356" y="819" as="targetPoint" />
          </mxGeometry>
        </mxCell>
        <mxCell id="W7klxGYHlzmc_tSxLxQi-113" value="e0/0" style="text;html=1;strokeColor=none;fillColor=none;align=center;verticalAlign=middle;whiteSpace=wrap;rounded=0;" parent="1" vertex="1">
          <mxGeometry x="341" y="912" width="30" height="20" as="geometry" />
        </mxCell>
        <mxCell id="W7klxGYHlzmc_tSxLxQi-114" value="" style="endArrow=none;html=1;rounded=0;exitX=0.5;exitY=0;exitDx=0;exitDy=0;exitPerimeter=0;entryX=0.5;entryY=1;entryDx=0;entryDy=0;entryPerimeter=0;" parent="1" target="W7klxGYHlzmc_tSxLxQi-113" edge="1">
          <mxGeometry width="50" height="50" relative="1" as="geometry">
            <mxPoint x="356" y="940" as="sourcePoint" />
            <mxPoint x="356" y="849" as="targetPoint" />
          </mxGeometry>
        </mxCell>
        <mxCell id="W7klxGYHlzmc_tSxLxQi-115" value="" style="sketch=0;points=[[0.015,0.015,0],[0.985,0.015,0],[0.985,0.985,0],[0.015,0.985,0],[0.25,0,0],[0.5,0,0],[0.75,0,0],[1,0.25,0],[1,0.5,0],[1,0.75,0],[0.75,1,0],[0.5,1,0],[0.25,1,0],[0,0.75,0],[0,0.5,0],[0,0.25,0]];verticalLabelPosition=bottom;html=1;verticalAlign=top;aspect=fixed;align=center;pointerEvents=1;shape=mxgraph.cisco19.rect;prIcon=l2_switch;fillColor=#FAFAFA;strokeColor=#005073;" parent="1" vertex="1">
          <mxGeometry x="629" y="939" width="50" height="50" as="geometry" />
        </mxCell>
        <mxCell id="W7klxGYHlzmc_tSxLxQi-116" value="" style="endArrow=none;html=1;rounded=0;exitX=0.5;exitY=0;exitDx=0;exitDy=0;exitPerimeter=0;entryX=0.5;entryY=1;entryDx=0;entryDy=0;entryPerimeter=0;startArrow=none;" parent="1" source="W7klxGYHlzmc_tSxLxQi-117" edge="1">
          <mxGeometry width="50" height="50" relative="1" as="geometry">
            <mxPoint x="809" y="859" as="sourcePoint" />
            <mxPoint x="654" y="819" as="targetPoint" />
          </mxGeometry>
        </mxCell>
        <mxCell id="W7klxGYHlzmc_tSxLxQi-117" value="e0/0" style="text;html=1;strokeColor=none;fillColor=none;align=center;verticalAlign=middle;whiteSpace=wrap;rounded=0;" parent="1" vertex="1">
          <mxGeometry x="639" y="826" width="30" height="20" as="geometry" />
        </mxCell>
        <mxCell id="W7klxGYHlzmc_tSxLxQi-118" value="" style="endArrow=none;html=1;rounded=0;exitX=0.5;exitY=0;exitDx=0;exitDy=0;exitPerimeter=0;entryX=0.5;entryY=1;entryDx=0;entryDy=0;entryPerimeter=0;startArrow=none;" parent="1" source="W7klxGYHlzmc_tSxLxQi-119" target="W7klxGYHlzmc_tSxLxQi-117" edge="1">
          <mxGeometry width="50" height="50" relative="1" as="geometry">
            <mxPoint x="654" y="940" as="sourcePoint" />
            <mxPoint x="654" y="819" as="targetPoint" />
          </mxGeometry>
        </mxCell>
        <mxCell id="W7klxGYHlzmc_tSxLxQi-119" value="e0/0" style="text;html=1;strokeColor=none;fillColor=none;align=center;verticalAlign=middle;whiteSpace=wrap;rounded=0;" parent="1" vertex="1">
          <mxGeometry x="639" y="912" width="30" height="20" as="geometry" />
        </mxCell>
        <mxCell id="W7klxGYHlzmc_tSxLxQi-120" value="" style="endArrow=none;html=1;rounded=0;exitX=0.5;exitY=0;exitDx=0;exitDy=0;exitPerimeter=0;entryX=0.5;entryY=1;entryDx=0;entryDy=0;entryPerimeter=0;" parent="1" target="W7klxGYHlzmc_tSxLxQi-119" edge="1">
          <mxGeometry width="50" height="50" relative="1" as="geometry">
            <mxPoint x="654" y="940.0000000000002" as="sourcePoint" />
            <mxPoint x="654" y="849" as="targetPoint" />
          </mxGeometry>
        </mxCell>
        <mxCell id="W7klxGYHlzmc_tSxLxQi-136" value="" style="endArrow=none;html=1;rounded=0;exitX=0.985;exitY=0.015;exitDx=0;exitDy=0;exitPerimeter=0;entryX=0.015;entryY=0.985;entryDx=0;entryDy=0;entryPerimeter=0;startArrow=none;" parent="1" source="W7klxGYHlzmc_tSxLxQi-142" edge="1">
          <mxGeometry width="50" height="50" relative="1" as="geometry">
            <mxPoint x="480" y="889" as="sourcePoint" />
            <mxPoint x="629.75" y="818.25" as="targetPoint" />
          </mxGeometry>
        </mxCell>
        <mxCell id="W7klxGYHlzmc_tSxLxQi-137" value="" style="endArrow=none;html=1;rounded=0;exitX=0.015;exitY=0.015;exitDx=0;exitDy=0;exitPerimeter=0;entryX=0.985;entryY=0.985;entryDx=0;entryDy=0;entryPerimeter=0;startArrow=none;" parent="1" source="W7klxGYHlzmc_tSxLxQi-140" edge="1">
          <mxGeometry width="50" height="50" relative="1" as="geometry">
            <mxPoint x="480" y="889" as="sourcePoint" />
            <mxPoint x="380.25" y="818.25" as="targetPoint" />
          </mxGeometry>
        </mxCell>
        <mxCell id="W7klxGYHlzmc_tSxLxQi-138" value="e0/1" style="text;html=1;strokeColor=none;fillColor=none;align=center;verticalAlign=middle;whiteSpace=wrap;rounded=0;" parent="1" vertex="1">
          <mxGeometry x="396" y="911" width="40" height="21" as="geometry" />
        </mxCell>
        <mxCell id="W7klxGYHlzmc_tSxLxQi-139" value="" style="endArrow=none;html=1;rounded=0;exitX=0.985;exitY=0.015;exitDx=0;exitDy=0;exitPerimeter=0;entryX=0.015;entryY=0.985;entryDx=0;entryDy=0;entryPerimeter=0;" parent="1" source="W7klxGYHlzmc_tSxLxQi-109" target="W7klxGYHlzmc_tSxLxQi-138" edge="1">
          <mxGeometry width="50" height="50" relative="1" as="geometry">
            <mxPoint x="380.25" y="939.75" as="sourcePoint" />
            <mxPoint x="629.75" y="818.25" as="targetPoint" />
          </mxGeometry>
        </mxCell>
        <mxCell id="W7klxGYHlzmc_tSxLxQi-140" value="e0/1" style="text;html=1;strokeColor=none;fillColor=none;align=center;verticalAlign=middle;whiteSpace=wrap;rounded=0;" parent="1" vertex="1">
          <mxGeometry x="400" y="827" width="31" height="21" as="geometry" />
        </mxCell>
        <mxCell id="W7klxGYHlzmc_tSxLxQi-141" value="" style="endArrow=none;html=1;rounded=0;exitX=0.015;exitY=0.015;exitDx=0;exitDy=0;exitPerimeter=0;entryX=0.985;entryY=0.985;entryDx=0;entryDy=0;entryPerimeter=0;startArrow=none;" parent="1" source="W7klxGYHlzmc_tSxLxQi-145" target="W7klxGYHlzmc_tSxLxQi-140" edge="1">
          <mxGeometry width="50" height="50" relative="1" as="geometry">
            <mxPoint x="629.75" y="939.75" as="sourcePoint" />
            <mxPoint x="380.25" y="818.25" as="targetPoint" />
          </mxGeometry>
        </mxCell>
        <mxCell id="W7klxGYHlzmc_tSxLxQi-142" value="e0/1" style="text;html=1;strokeColor=none;fillColor=none;align=center;verticalAlign=middle;whiteSpace=wrap;rounded=0;" parent="1" vertex="1">
          <mxGeometry x="576" y="825" width="40" height="21" as="geometry" />
        </mxCell>
        <mxCell id="W7klxGYHlzmc_tSxLxQi-144" value="" style="endArrow=none;html=1;rounded=0;exitX=0.985;exitY=0.015;exitDx=0;exitDy=0;exitPerimeter=0;entryX=0.015;entryY=0.985;entryDx=0;entryDy=0;entryPerimeter=0;startArrow=none;" parent="1" source="W7klxGYHlzmc_tSxLxQi-138" target="W7klxGYHlzmc_tSxLxQi-142" edge="1">
          <mxGeometry width="50" height="50" relative="1" as="geometry">
            <mxPoint x="435.4" y="911.3150000000003" as="sourcePoint" />
            <mxPoint x="629.75" y="818.25" as="targetPoint" />
          </mxGeometry>
        </mxCell>
        <mxCell id="W7klxGYHlzmc_tSxLxQi-145" value="e0/1" style="text;html=1;strokeColor=none;fillColor=none;align=center;verticalAlign=middle;whiteSpace=wrap;rounded=0;" parent="1" vertex="1">
          <mxGeometry x="576" y="912" width="40" height="21" as="geometry" />
        </mxCell>
        <mxCell id="W7klxGYHlzmc_tSxLxQi-146" value="" style="endArrow=none;html=1;rounded=0;exitX=0.015;exitY=0.015;exitDx=0;exitDy=0;exitPerimeter=0;entryX=0.985;entryY=0.985;entryDx=0;entryDy=0;entryPerimeter=0;" parent="1" source="W7klxGYHlzmc_tSxLxQi-115" target="W7klxGYHlzmc_tSxLxQi-145" edge="1">
          <mxGeometry width="50" height="50" relative="1" as="geometry">
            <mxPoint x="629.75" y="939.75" as="sourcePoint" />
            <mxPoint x="430.4" y="839.6850000000002" as="targetPoint" />
          </mxGeometry>
        </mxCell>
        <mxCell id="W7klxGYHlzmc_tSxLxQi-148" value="" style="endArrow=none;html=1;rounded=0;exitX=0.8555;exitY=0.145;exitDx=0;exitDy=0;exitPerimeter=0;entryX=0.145;entryY=0.855;entryDx=0;entryDy=0;entryPerimeter=0;startArrow=none;" parent="1" source="W7klxGYHlzmc_tSxLxQi-154" target="LB4oUW9Qehg8nWZua1mU-3" edge="1">
          <mxGeometry width="50" height="50" relative="1" as="geometry">
            <mxPoint x="320" y="665" as="sourcePoint" />
            <mxPoint x="370" y="615" as="targetPoint" />
          </mxGeometry>
        </mxCell>
        <mxCell id="W7klxGYHlzmc_tSxLxQi-149" value="" style="endArrow=none;html=1;rounded=0;exitX=1;exitY=0.5;exitDx=0;exitDy=0;exitPerimeter=0;entryX=0.06;entryY=0.7;entryDx=0;entryDy=0;entryPerimeter=0;startArrow=none;" parent="1" source="W7klxGYHlzmc_tSxLxQi-157" target="LB4oUW9Qehg8nWZua1mU-4" edge="1">
          <mxGeometry width="50" height="50" relative="1" as="geometry">
            <mxPoint x="220" y="645" as="sourcePoint" />
            <mxPoint x="370" y="615" as="targetPoint" />
          </mxGeometry>
        </mxCell>
        <mxCell id="W7klxGYHlzmc_tSxLxQi-147" value="e0/0" style="text;html=1;strokeColor=none;fillColor=none;align=center;verticalAlign=middle;whiteSpace=wrap;rounded=0;" parent="1" vertex="1">
          <mxGeometry x="174" y="552" width="27" height="19" as="geometry" />
        </mxCell>
        <mxCell id="W7klxGYHlzmc_tSxLxQi-151" value="" style="endArrow=none;html=1;rounded=0;exitX=0.8555;exitY=0.145;exitDx=0;exitDy=0;exitPerimeter=0;entryX=0.145;entryY=0.855;entryDx=0;entryDy=0;entryPerimeter=0;" parent="1" source="W7klxGYHlzmc_tSxLxQi-65" target="W7klxGYHlzmc_tSxLxQi-147" edge="1">
          <mxGeometry width="50" height="50" relative="1" as="geometry">
            <mxPoint x="155.7750000000001" y="583.2499999999998" as="sourcePoint" />
            <mxPoint x="338.25" y="447.75" as="targetPoint" />
          </mxGeometry>
        </mxCell>
        <mxCell id="W7klxGYHlzmc_tSxLxQi-150" value="e0/1" style="text;html=1;strokeColor=none;fillColor=none;align=center;verticalAlign=middle;whiteSpace=wrap;rounded=0;" parent="1" vertex="1">
          <mxGeometry x="190" y="569" width="26" height="29" as="geometry" />
        </mxCell>
        <mxCell id="W7klxGYHlzmc_tSxLxQi-153" value="" style="endArrow=none;html=1;rounded=0;exitX=1;exitY=0.5;exitDx=0;exitDy=0;exitPerimeter=0;entryX=0.06;entryY=0.7;entryDx=0;entryDy=0;entryPerimeter=0;" parent="1" source="W7klxGYHlzmc_tSxLxQi-65" target="W7klxGYHlzmc_tSxLxQi-150" edge="1">
          <mxGeometry width="50" height="50" relative="1" as="geometry">
            <mxPoint x="162.99999999999994" y="601" as="sourcePoint" />
            <mxPoint x="632.0000000000001" y="440" as="targetPoint" />
          </mxGeometry>
        </mxCell>
        <mxCell id="W7klxGYHlzmc_tSxLxQi-154" value="e0/3" style="text;html=1;strokeColor=none;fillColor=none;align=center;verticalAlign=middle;whiteSpace=wrap;rounded=0;" parent="1" vertex="1">
          <mxGeometry x="300" y="455" width="31" height="21" as="geometry" />
        </mxCell>
        <mxCell id="W7klxGYHlzmc_tSxLxQi-155" value="" style="endArrow=none;html=1;rounded=0;exitX=0.8555;exitY=0.145;exitDx=0;exitDy=0;exitPerimeter=0;entryX=0.145;entryY=0.855;entryDx=0;entryDy=0;entryPerimeter=0;startArrow=none;" parent="1" source="W7klxGYHlzmc_tSxLxQi-147" target="W7klxGYHlzmc_tSxLxQi-154" edge="1">
          <mxGeometry width="50" height="50" relative="1" as="geometry">
            <mxPoint x="197.09849999999994" y="554.7550000000001" as="sourcePoint" />
            <mxPoint x="338.25" y="447.75" as="targetPoint" />
          </mxGeometry>
        </mxCell>
        <mxCell id="W7klxGYHlzmc_tSxLxQi-157" value="e0/5" style="text;html=1;strokeColor=none;fillColor=none;align=center;verticalAlign=middle;whiteSpace=wrap;rounded=0;" parent="1" vertex="1">
          <mxGeometry x="584" y="440" width="24" height="21" as="geometry" />
        </mxCell>
        <mxCell id="W7klxGYHlzmc_tSxLxQi-158" value="" style="endArrow=none;html=1;rounded=0;exitX=1;exitY=0.5;exitDx=0;exitDy=0;exitPerimeter=0;entryX=0.06;entryY=0.7;entryDx=0;entryDy=0;entryPerimeter=0;startArrow=none;" parent="1" source="W7klxGYHlzmc_tSxLxQi-150" target="W7klxGYHlzmc_tSxLxQi-157" edge="1">
          <mxGeometry width="50" height="50" relative="1" as="geometry">
            <mxPoint x="216" y="583.5000000000001" as="sourcePoint" />
            <mxPoint x="632" y="440" as="targetPoint" />
          </mxGeometry>
        </mxCell>
        <mxCell id="W7klxGYHlzmc_tSxLxQi-159" value="" style="points=[[0.03,0.03,0],[0.5,0,0],[0.97,0.03,0],[1,0.4,0],[0.97,0.745,0],[0.5,1,0],[0.03,0.745,0],[0,0.4,0]];verticalLabelPosition=bottom;sketch=0;html=1;verticalAlign=top;aspect=fixed;align=center;pointerEvents=1;shape=mxgraph.cisco19.workstation;fillColor=#005073;strokeColor=none;" parent="1" vertex="1">
          <mxGeometry x="331" y="1109" width="50" height="40" as="geometry" />
        </mxCell>
        <mxCell id="W7klxGYHlzmc_tSxLxQi-160" value="" style="endArrow=none;html=1;rounded=0;exitX=0.5;exitY=0;exitDx=0;exitDy=0;exitPerimeter=0;entryX=0.5;entryY=1;entryDx=0;entryDy=0;entryPerimeter=0;startArrow=none;" parent="1" source="W7klxGYHlzmc_tSxLxQi-161" edge="1">
          <mxGeometry width="50" height="50" relative="1" as="geometry">
            <mxPoint x="511" y="1028" as="sourcePoint" />
            <mxPoint x="356" y="988" as="targetPoint" />
          </mxGeometry>
        </mxCell>
        <mxCell id="W7klxGYHlzmc_tSxLxQi-161" value="e0/2" style="text;html=1;strokeColor=none;fillColor=none;align=center;verticalAlign=middle;whiteSpace=wrap;rounded=0;" parent="1" vertex="1">
          <mxGeometry x="341" y="995" width="30" height="20" as="geometry" />
        </mxCell>
        <mxCell id="W7klxGYHlzmc_tSxLxQi-162" value="" style="endArrow=none;html=1;rounded=0;exitX=0.5;exitY=0;exitDx=0;exitDy=0;exitPerimeter=0;entryX=0.5;entryY=1;entryDx=0;entryDy=0;entryPerimeter=0;startArrow=none;" parent="1" source="W7klxGYHlzmc_tSxLxQi-163" target="W7klxGYHlzmc_tSxLxQi-161" edge="1">
          <mxGeometry width="50" height="50" relative="1" as="geometry">
            <mxPoint x="356" y="1109" as="sourcePoint" />
            <mxPoint x="356" y="988" as="targetPoint" />
          </mxGeometry>
        </mxCell>
        <mxCell id="W7klxGYHlzmc_tSxLxQi-163" value="eth0" style="text;html=1;strokeColor=none;fillColor=none;align=center;verticalAlign=middle;whiteSpace=wrap;rounded=0;" parent="1" vertex="1">
          <mxGeometry x="341" y="1081" width="30" height="20" as="geometry" />
        </mxCell>
        <mxCell id="W7klxGYHlzmc_tSxLxQi-164" value="" style="endArrow=none;html=1;rounded=0;exitX=0.5;exitY=0;exitDx=0;exitDy=0;exitPerimeter=0;entryX=0.5;entryY=1;entryDx=0;entryDy=0;entryPerimeter=0;" parent="1" target="W7klxGYHlzmc_tSxLxQi-163" edge="1">
          <mxGeometry width="50" height="50" relative="1" as="geometry">
            <mxPoint x="356" y="1109" as="sourcePoint" />
            <mxPoint x="356" y="1018" as="targetPoint" />
          </mxGeometry>
        </mxCell>
        <mxCell id="W7klxGYHlzmc_tSxLxQi-165" value="&lt;b&gt;R12&lt;/b&gt;" style="text;html=1;strokeColor=none;fillColor=none;align=right;verticalAlign=middle;whiteSpace=wrap;rounded=0;" parent="1" vertex="1">
          <mxGeometry x="300" y="577.25" width="30" height="30" as="geometry" />
        </mxCell>
        <mxCell id="W7klxGYHlzmc_tSxLxQi-166" value="&lt;b&gt;SW4&lt;/b&gt;" style="text;html=1;strokeColor=none;fillColor=none;align=right;verticalAlign=middle;whiteSpace=wrap;rounded=0;" parent="1" vertex="1">
          <mxGeometry x="290" y="779" width="41" height="30" as="geometry" />
        </mxCell>
        <mxCell id="W7klxGYHlzmc_tSxLxQi-167" value="&lt;b&gt;SW3&lt;/b&gt;" style="text;html=1;strokeColor=none;fillColor=none;align=right;verticalAlign=middle;whiteSpace=wrap;rounded=0;" parent="1" vertex="1">
          <mxGeometry x="280" y="939" width="51" height="30" as="geometry" />
        </mxCell>
        <mxCell id="W7klxGYHlzmc_tSxLxQi-168" value="&lt;b&gt;VPC1&lt;/b&gt;" style="text;html=1;strokeColor=none;fillColor=none;align=center;verticalAlign=middle;whiteSpace=wrap;rounded=0;" parent="1" vertex="1">
          <mxGeometry x="331" y="1149" width="51" height="30" as="geometry" />
        </mxCell>
        <mxCell id="W7klxGYHlzmc_tSxLxQi-169" value="" style="points=[[0.03,0.03,0],[0.5,0,0],[0.97,0.03,0],[1,0.4,0],[0.97,0.745,0],[0.5,1,0],[0.03,0.745,0],[0,0.4,0]];verticalLabelPosition=bottom;sketch=0;html=1;verticalAlign=top;aspect=fixed;align=center;pointerEvents=1;shape=mxgraph.cisco19.workstation;fillColor=#005073;strokeColor=none;" parent="1" vertex="1">
          <mxGeometry x="632" y="1110" width="50" height="40" as="geometry" />
        </mxCell>
        <mxCell id="W7klxGYHlzmc_tSxLxQi-170" value="" style="endArrow=none;html=1;rounded=0;exitX=0.5;exitY=0;exitDx=0;exitDy=0;exitPerimeter=0;entryX=0.5;entryY=1;entryDx=0;entryDy=0;entryPerimeter=0;startArrow=none;" parent="1" source="W7klxGYHlzmc_tSxLxQi-171" edge="1">
          <mxGeometry width="50" height="50" relative="1" as="geometry">
            <mxPoint x="812" y="1029" as="sourcePoint" />
            <mxPoint x="657" y="989" as="targetPoint" />
          </mxGeometry>
        </mxCell>
        <mxCell id="W7klxGYHlzmc_tSxLxQi-171" value="e0/2" style="text;html=1;strokeColor=none;fillColor=none;align=center;verticalAlign=middle;whiteSpace=wrap;rounded=0;" parent="1" vertex="1">
          <mxGeometry x="642" y="996" width="30" height="20" as="geometry" />
        </mxCell>
        <mxCell id="W7klxGYHlzmc_tSxLxQi-172" value="" style="endArrow=none;html=1;rounded=0;exitX=0.5;exitY=0;exitDx=0;exitDy=0;exitPerimeter=0;entryX=0.5;entryY=1;entryDx=0;entryDy=0;entryPerimeter=0;startArrow=none;" parent="1" source="W7klxGYHlzmc_tSxLxQi-173" target="W7klxGYHlzmc_tSxLxQi-171" edge="1">
          <mxGeometry width="50" height="50" relative="1" as="geometry">
            <mxPoint x="657" y="1110" as="sourcePoint" />
            <mxPoint x="657" y="989" as="targetPoint" />
          </mxGeometry>
        </mxCell>
        <mxCell id="W7klxGYHlzmc_tSxLxQi-173" value="eth0" style="text;html=1;strokeColor=none;fillColor=none;align=center;verticalAlign=middle;whiteSpace=wrap;rounded=0;" parent="1" vertex="1">
          <mxGeometry x="642" y="1082" width="30" height="20" as="geometry" />
        </mxCell>
        <mxCell id="W7klxGYHlzmc_tSxLxQi-174" value="" style="endArrow=none;html=1;rounded=0;exitX=0.5;exitY=0;exitDx=0;exitDy=0;exitPerimeter=0;entryX=0.5;entryY=1;entryDx=0;entryDy=0;entryPerimeter=0;" parent="1" target="W7klxGYHlzmc_tSxLxQi-173" edge="1">
          <mxGeometry width="50" height="50" relative="1" as="geometry">
            <mxPoint x="657" y="1110" as="sourcePoint" />
            <mxPoint x="657" y="1019" as="targetPoint" />
          </mxGeometry>
        </mxCell>
        <mxCell id="W7klxGYHlzmc_tSxLxQi-175" value="&lt;b&gt;VPC7&lt;/b&gt;" style="text;html=1;strokeColor=none;fillColor=none;align=center;verticalAlign=middle;whiteSpace=wrap;rounded=0;" parent="1" vertex="1">
          <mxGeometry x="632" y="1150" width="51" height="30" as="geometry" />
        </mxCell>
        <mxCell id="W7klxGYHlzmc_tSxLxQi-176" value="&lt;font face=&quot;Lucida Console&quot;&gt;10.0.0.0/24&lt;br&gt;VLAN 100&lt;br&gt;&lt;/font&gt;" style="text;html=1;strokeColor=none;fillColor=none;align=center;verticalAlign=middle;whiteSpace=wrap;rounded=0;" parent="1" vertex="1">
          <mxGeometry x="284" y="1029" width="60" height="30" as="geometry" />
        </mxCell>
        <mxCell id="W7klxGYHlzmc_tSxLxQi-177" value="&lt;font face=&quot;Lucida Console&quot;&gt;10.0.1.0/24&lt;br&gt;VLAN 110&lt;br&gt;&lt;/font&gt;" style="text;html=1;strokeColor=none;fillColor=none;align=center;verticalAlign=middle;whiteSpace=wrap;rounded=0;" parent="1" vertex="1">
          <mxGeometry x="586" y="1029" width="60" height="30" as="geometry" />
        </mxCell>
        <mxCell id="W7klxGYHlzmc_tSxLxQi-178" value="10.0.0.0/8 - Moscow&lt;br&gt;&lt;span style=&quot;white-space: pre;&quot;&gt;	&lt;/span&gt;10.0.0.0/17 - Clients&lt;br&gt;&lt;span style=&quot;white-space: pre;&quot;&gt;	&lt;/span&gt;&lt;i&gt;10.0.128.0-10.0.239.255 - Vacant&lt;/i&gt;&lt;br&gt;&lt;span style=&quot;white-space: pre;&quot;&gt;	&lt;/span&gt;10.0.240.0/20 - Network needs&lt;br&gt;&lt;span style=&quot;white-space: pre;&quot;&gt;	&lt;/span&gt;&lt;span style=&quot;white-space: pre;&quot;&gt;	&lt;/span&gt;10.0.240.0/21 - PtP links between routers&lt;br&gt;&lt;span style=&quot;white-space: pre;&quot;&gt;	&lt;/span&gt;&lt;span style=&quot;white-space: pre;&quot;&gt;	&lt;/span&gt;&lt;span style=&quot;white-space: pre;&quot;&gt;	&lt;/span&gt;10.0.240.0/30 - R12 - SW4&lt;br&gt;&lt;span style=&quot;white-space: pre;&quot;&gt;	&lt;/span&gt;&lt;span style=&quot;white-space: pre;&quot;&gt;	&lt;/span&gt;&lt;span style=&quot;white-space: pre;&quot;&gt;	&lt;/span&gt;10.0.240.4/30 -&amp;nbsp;&lt;br&gt;&lt;span style=&quot;white-space: pre;&quot;&gt;	&lt;/span&gt;&lt;span style=&quot;white-space: pre;&quot;&gt;	&lt;/span&gt;&lt;i&gt;10.0.248.0-10.0.253.255 - Vacant&lt;/i&gt;&lt;br&gt;&lt;span style=&quot;white-space: pre;&quot;&gt;	&lt;/span&gt;&lt;span style=&quot;white-space: pre;&quot;&gt;	&lt;/span&gt;10.0.254.0/24 - MGMT VLAN&lt;br&gt;&lt;span style=&quot;white-space: pre;&quot;&gt;	&lt;/span&gt;&lt;span style=&quot;white-space: pre;&quot;&gt;	&lt;span style=&quot;white-space: pre;&quot;&gt;	&lt;/span&gt;1&lt;/span&gt;0.0.254.1 - Gateway / HSRP&lt;br&gt;&lt;span style=&quot;white-space: pre;&quot;&gt;	&lt;/span&gt;&lt;span style=&quot;white-space: pre;&quot;&gt;	&lt;/span&gt;10.0.255.0/24 - Loopback interfaces" style="text;html=1;strokeColor=none;fillColor=none;spacing=5;spacingTop=-20;whiteSpace=wrap;overflow=hidden;rounded=0;fontFamily=Lucida Console;" parent="1" vertex="1">
          <mxGeometry x="960" y="640" width="430" height="310" as="geometry" />
        </mxCell>
        <mxCell id="W7klxGYHlzmc_tSxLxQi-179" value="&lt;font face=&quot;Lucida Console&quot;&gt;SVI: VLAN 10: 10.0.254.2&lt;/font&gt;" style="text;html=1;strokeColor=none;fillColor=none;align=center;verticalAlign=middle;whiteSpace=wrap;rounded=0;" parent="1" vertex="1">
          <mxGeometry x="681" y="959" width="179" height="30" as="geometry" />
        </mxCell>
        <mxCell id="W7klxGYHlzmc_tSxLxQi-180" value="&lt;b&gt;SW2&lt;/b&gt;" style="text;html=1;strokeColor=none;fillColor=none;align=left;verticalAlign=middle;whiteSpace=wrap;rounded=0;" parent="1" vertex="1">
          <mxGeometry x="679" y="939" width="51" height="30" as="geometry" />
        </mxCell>
        <mxCell id="W7klxGYHlzmc_tSxLxQi-181" value="&lt;font face=&quot;Lucida Console&quot;&gt;SVI: VLAN 10: 10.0.254.3&lt;/font&gt;" style="text;html=1;strokeColor=none;fillColor=none;align=center;verticalAlign=middle;whiteSpace=wrap;rounded=0;" parent="1" vertex="1">
          <mxGeometry x="150" y="959" width="180" height="30" as="geometry" />
        </mxCell>
        <mxCell id="W7klxGYHlzmc_tSxLxQi-182" value="10.0.240.12/30" style="text;html=1;strokeColor=none;fillColor=none;align=center;verticalAlign=middle;whiteSpace=wrap;rounded=0;fontFamily=Lucida Console;" parent="1" vertex="1">
          <mxGeometry x="682" y="675" width="60" height="30" as="geometry" />
        </mxCell>
        <mxCell id="W7klxGYHlzmc_tSxLxQi-183" value="&lt;b&gt;SW5&lt;/b&gt;" style="text;html=1;strokeColor=none;fillColor=none;align=left;verticalAlign=middle;whiteSpace=wrap;rounded=0;" parent="1" vertex="1">
          <mxGeometry x="679" y="779" width="41" height="30" as="geometry" />
        </mxCell>
        <mxCell id="W7klxGYHlzmc_tSxLxQi-184" value="&lt;b&gt;R14&lt;/b&gt;" style="text;html=1;strokeColor=none;fillColor=none;align=right;verticalAlign=middle;whiteSpace=wrap;rounded=0;" parent="1" vertex="1">
          <mxGeometry x="300" y="406" width="30" height="30" as="geometry" />
        </mxCell>
        <mxCell id="W7klxGYHlzmc_tSxLxQi-185" value="&lt;b&gt;R13&lt;/b&gt;" style="text;html=1;strokeColor=none;fillColor=none;align=left;verticalAlign=middle;whiteSpace=wrap;rounded=0;" parent="1" vertex="1">
          <mxGeometry x="681" y="578" width="30" height="30" as="geometry" />
        </mxCell>
        <mxCell id="W7klxGYHlzmc_tSxLxQi-186" value="&lt;b&gt;R15&lt;br&gt;&lt;/b&gt;" style="text;html=1;strokeColor=none;fillColor=none;align=left;verticalAlign=middle;whiteSpace=wrap;rounded=0;" parent="1" vertex="1">
          <mxGeometry x="681" y="404.5" width="30" height="30" as="geometry" />
        </mxCell>
        <mxCell id="W7klxGYHlzmc_tSxLxQi-187" value="10.0.240.0/30" style="text;html=1;strokeColor=none;fillColor=none;align=center;verticalAlign=middle;whiteSpace=wrap;rounded=0;fontFamily=Lucida Console;" parent="1" vertex="1">
          <mxGeometry x="275.5" y="675" width="60" height="30" as="geometry" />
        </mxCell>
        <mxCell id="W7klxGYHlzmc_tSxLxQi-188" value="10.0.240.4/30" style="text;html=1;strokeColor=none;fillColor=none;align=center;verticalAlign=middle;whiteSpace=wrap;rounded=0;fontFamily=Lucida Console;rotation=-25;" parent="1" vertex="1">
          <mxGeometry x="420" y="688" width="60" height="30" as="geometry" />
        </mxCell>
        <mxCell id="W7klxGYHlzmc_tSxLxQi-189" value="10.0.240.8/30" style="text;html=1;strokeColor=none;fillColor=none;align=center;verticalAlign=middle;whiteSpace=wrap;rounded=0;fontFamily=Lucida Console;" parent="1" vertex="1">
          <mxGeometry x="471" y="576" width="60" height="30" as="geometry" />
        </mxCell>
        <mxCell id="W7klxGYHlzmc_tSxLxQi-190" value="10.0.240.16/30" style="text;html=1;strokeColor=none;fillColor=none;align=center;verticalAlign=middle;whiteSpace=wrap;rounded=0;fontFamily=Lucida Console;rotation=30;" parent="1" vertex="1">
          <mxGeometry x="548" y="688" width="60" height="30" as="geometry" />
        </mxCell>
        <mxCell id="W7klxGYHlzmc_tSxLxQi-194" value="lo:10.0.255.12" style="text;html=1;strokeColor=none;fillColor=none;align=center;verticalAlign=middle;whiteSpace=wrap;rounded=0;fontFamily=Lucida Console;" parent="1" vertex="1">
          <mxGeometry x="238" y="596" width="80" height="30" as="geometry" />
        </mxCell>
        <mxCell id="W7klxGYHlzmc_tSxLxQi-195" value="lo:10.0.255.13" style="text;html=1;strokeColor=none;fillColor=none;align=center;verticalAlign=middle;whiteSpace=wrap;rounded=0;fontFamily=Lucida Console;" parent="1" vertex="1">
          <mxGeometry x="694" y="596" width="80" height="30" as="geometry" />
        </mxCell>
        <mxCell id="W7klxGYHlzmc_tSxLxQi-200" value="" style="sketch=0;points=[[0.015,0.015,0],[0.985,0.015,0],[0.985,0.985,0],[0.015,0.985,0],[0.25,0,0],[0.5,0,0],[0.75,0,0],[1,0.25,0],[1,0.5,0],[1,0.75,0],[0.75,1,0],[0.5,1,0],[0.25,1,0],[0,0.75,0],[0,0.5,0],[0,0.25,0]];verticalLabelPosition=bottom;html=1;verticalAlign=top;aspect=fixed;align=center;pointerEvents=1;shape=mxgraph.cisco19.rect;prIcon=l3_modular;fillColor=#FAFAFA;strokeColor=#005073;fontFamily=Lucida Console;" parent="1" vertex="1">
          <mxGeometry x="332" y="745" width="50" height="73" as="geometry" />
        </mxCell>
        <mxCell id="W7klxGYHlzmc_tSxLxQi-201" value="" style="sketch=0;points=[[0.015,0.015,0],[0.985,0.015,0],[0.985,0.985,0],[0.015,0.985,0],[0.25,0,0],[0.5,0,0],[0.75,0,0],[1,0.25,0],[1,0.5,0],[1,0.75,0],[0.75,1,0],[0.5,1,0],[0.25,1,0],[0,0.75,0],[0,0.5,0],[0,0.25,0]];verticalLabelPosition=bottom;html=1;verticalAlign=top;aspect=fixed;align=center;pointerEvents=1;shape=mxgraph.cisco19.rect;prIcon=l3_modular;fillColor=#FAFAFA;strokeColor=#005073;fontFamily=Lucida Console;" parent="1" vertex="1">
          <mxGeometry x="630" y="745" width="50" height="73" as="geometry" />
        </mxCell>
        <mxCell id="W7klxGYHlzmc_tSxLxQi-202" value="&lt;b&gt;R19&lt;/b&gt;" style="text;html=1;strokeColor=none;fillColor=none;align=center;verticalAlign=middle;whiteSpace=wrap;rounded=0;" parent="1" vertex="1">
          <mxGeometry x="123" y="622" width="30" height="30" as="geometry" />
        </mxCell>
        <mxCell id="W7klxGYHlzmc_tSxLxQi-203" value="" style="sketch=0;points=[[0.5,0,0],[1,0.5,0],[0.5,1,0],[0,0.5,0],[0.145,0.145,0],[0.8555,0.145,0],[0.855,0.8555,0],[0.145,0.855,0]];verticalLabelPosition=bottom;html=1;verticalAlign=top;aspect=fixed;align=center;pointerEvents=1;shape=mxgraph.cisco19.rect;prIcon=router;fillColor=#FAFAFA;strokeColor=#005073;" parent="1" vertex="1">
          <mxGeometry x="847" y="576" width="50" height="50" as="geometry" />
        </mxCell>
        <mxCell id="W7klxGYHlzmc_tSxLxQi-220" value="&lt;b&gt;R20&lt;/b&gt;" style="text;html=1;strokeColor=none;fillColor=none;align=center;verticalAlign=middle;whiteSpace=wrap;rounded=0;" parent="1" vertex="1">
          <mxGeometry x="859" y="622" width="30" height="30" as="geometry" />
        </mxCell>
        <mxCell id="W7klxGYHlzmc_tSxLxQi-221" value="" style="endArrow=none;html=1;rounded=0;fontFamily=Lucida Console;entryX=0.855;entryY=0.8555;entryDx=0;entryDy=0;entryPerimeter=0;exitX=0.145;exitY=0.145;exitDx=0;exitDy=0;exitPerimeter=0;startArrow=none;" parent="1" source="W7klxGYHlzmc_tSxLxQi-227" target="LB4oUW9Qehg8nWZua1mU-4" edge="1">
          <mxGeometry width="50" height="50" relative="1" as="geometry">
            <mxPoint x="700" y="735" as="sourcePoint" />
            <mxPoint x="750" y="685" as="targetPoint" />
          </mxGeometry>
        </mxCell>
        <mxCell id="W7klxGYHlzmc_tSxLxQi-222" value="" style="endArrow=none;html=1;rounded=0;fontFamily=Lucida Console;exitX=0;exitY=0.5;exitDx=0;exitDy=0;exitPerimeter=0;entryX=0.95;entryY=0.697;entryDx=0;entryDy=0;entryPerimeter=0;startArrow=none;" parent="1" source="W7klxGYHlzmc_tSxLxQi-224" target="LB4oUW9Qehg8nWZua1mU-3" edge="1">
          <mxGeometry width="50" height="50" relative="1" as="geometry">
            <mxPoint x="700" y="735" as="sourcePoint" />
            <mxPoint x="750" y="685" as="targetPoint" />
          </mxGeometry>
        </mxCell>
        <mxCell id="W7klxGYHlzmc_tSxLxQi-224" value="e0/5" style="text;html=1;strokeColor=none;fillColor=none;align=center;verticalAlign=middle;whiteSpace=wrap;rounded=0;" parent="1" vertex="1">
          <mxGeometry x="394" y="438" width="26" height="16" as="geometry" />
        </mxCell>
        <mxCell id="W7klxGYHlzmc_tSxLxQi-225" value="" style="endArrow=none;html=1;rounded=0;fontFamily=Lucida Console;exitX=0;exitY=0.5;exitDx=0;exitDy=0;exitPerimeter=0;entryX=0.95;entryY=0.697;entryDx=0;entryDy=0;entryPerimeter=0;startArrow=none;" parent="1" source="W7klxGYHlzmc_tSxLxQi-231" target="W7klxGYHlzmc_tSxLxQi-224" edge="1">
          <mxGeometry width="50" height="50" relative="1" as="geometry">
            <mxPoint x="847" y="601" as="sourcePoint" />
            <mxPoint x="378.5" y="439.85" as="targetPoint" />
          </mxGeometry>
        </mxCell>
        <mxCell id="W7klxGYHlzmc_tSxLxQi-226" value="lo:10.0.255.20" style="text;html=1;strokeColor=none;fillColor=none;align=center;verticalAlign=middle;whiteSpace=wrap;rounded=0;fontFamily=Lucida Console;" parent="1" vertex="1">
          <mxGeometry x="833" y="635" width="80" height="30" as="geometry" />
        </mxCell>
        <mxCell id="W7klxGYHlzmc_tSxLxQi-227" value="e0/3" style="text;html=1;strokeColor=none;fillColor=none;align=center;verticalAlign=middle;whiteSpace=wrap;rounded=0;" parent="1" vertex="1">
          <mxGeometry x="681" y="454" width="31" height="21" as="geometry" />
        </mxCell>
        <mxCell id="W7klxGYHlzmc_tSxLxQi-228" value="" style="endArrow=none;html=1;rounded=0;fontFamily=Lucida Console;entryX=0.855;entryY=0.8555;entryDx=0;entryDy=0;entryPerimeter=0;exitX=0.145;exitY=0.145;exitDx=0;exitDy=0;exitPerimeter=0;startArrow=none;" parent="1" source="W7klxGYHlzmc_tSxLxQi-229" target="W7klxGYHlzmc_tSxLxQi-227" edge="1">
          <mxGeometry width="50" height="50" relative="1" as="geometry">
            <mxPoint x="854.2499999999998" y="583.25" as="sourcePoint" />
            <mxPoint x="671.7500000000002" y="447.775" as="targetPoint" />
          </mxGeometry>
        </mxCell>
        <mxCell id="W7klxGYHlzmc_tSxLxQi-229" value="e0/0" style="text;html=1;strokeColor=none;fillColor=none;align=center;verticalAlign=middle;whiteSpace=wrap;rounded=0;" parent="1" vertex="1">
          <mxGeometry x="810" y="552" width="27" height="19" as="geometry" />
        </mxCell>
        <mxCell id="W7klxGYHlzmc_tSxLxQi-230" value="" style="endArrow=none;html=1;rounded=0;fontFamily=Lucida Console;entryX=0.855;entryY=0.8555;entryDx=0;entryDy=0;entryPerimeter=0;exitX=0.145;exitY=0.145;exitDx=0;exitDy=0;exitPerimeter=0;" parent="1" source="W7klxGYHlzmc_tSxLxQi-203" target="W7klxGYHlzmc_tSxLxQi-229" edge="1">
          <mxGeometry width="50" height="50" relative="1" as="geometry">
            <mxPoint x="854.25" y="583.25" as="sourcePoint" />
            <mxPoint x="707.5050000000001" y="471.9654999999999" as="targetPoint" />
          </mxGeometry>
        </mxCell>
        <mxCell id="W7klxGYHlzmc_tSxLxQi-231" value="e0/1" style="text;html=1;strokeColor=none;fillColor=none;align=center;verticalAlign=middle;whiteSpace=wrap;rounded=0;" parent="1" vertex="1">
          <mxGeometry x="790" y="568" width="26" height="29" as="geometry" />
        </mxCell>
        <mxCell id="W7klxGYHlzmc_tSxLxQi-232" value="" style="endArrow=none;html=1;rounded=0;fontFamily=Lucida Console;exitX=0;exitY=0.5;exitDx=0;exitDy=0;exitPerimeter=0;entryX=0.95;entryY=0.697;entryDx=0;entryDy=0;entryPerimeter=0;" parent="1" source="W7klxGYHlzmc_tSxLxQi-203" target="W7klxGYHlzmc_tSxLxQi-231" edge="1">
          <mxGeometry width="50" height="50" relative="1" as="geometry">
            <mxPoint x="847" y="601" as="sourcePoint" />
            <mxPoint x="418.70000000000005" y="449.15199999999993" as="targetPoint" />
          </mxGeometry>
        </mxCell>
        <mxCell id="W7klxGYHlzmc_tSxLxQi-233" value="lo:10.0.255.19" style="text;html=1;strokeColor=none;fillColor=none;align=center;verticalAlign=middle;whiteSpace=wrap;rounded=0;fontFamily=Lucida Console;" parent="1" vertex="1">
          <mxGeometry x="94" y="635" width="80" height="30" as="geometry" />
        </mxCell>
        <mxCell id="W7klxGYHlzmc_tSxLxQi-234" value="lo:10.0.255.14" style="text;html=1;strokeColor=none;fillColor=none;align=center;verticalAlign=middle;whiteSpace=wrap;rounded=0;fontFamily=Lucida Console;" parent="1" vertex="1">
          <mxGeometry x="238" y="421" width="80" height="30" as="geometry" />
        </mxCell>
        <mxCell id="W7klxGYHlzmc_tSxLxQi-235" value="lo:10.0.255.15" style="text;html=1;strokeColor=none;fillColor=none;align=center;verticalAlign=middle;whiteSpace=wrap;rounded=0;fontFamily=Lucida Console;" parent="1" vertex="1">
          <mxGeometry x="694" y="421.5" width="80" height="30" as="geometry" />
        </mxCell>
        <mxCell id="W7klxGYHlzmc_tSxLxQi-236" value="L2: VLANs: 10, 110, 120, 6 (native)" style="text;html=1;strokeColor=none;fillColor=none;align=center;verticalAlign=middle;whiteSpace=wrap;rounded=0;fontFamily=Lucida Console;" parent="1" vertex="1">
          <mxGeometry x="456" y="757" width="100" height="30" as="geometry" />
        </mxCell>
        <mxCell id="W7klxGYHlzmc_tSxLxQi-237" value="10.0.240.20/30" style="text;html=1;strokeColor=none;fillColor=none;align=center;verticalAlign=middle;whiteSpace=wrap;rounded=0;fontFamily=Lucida Console;" parent="1" vertex="1">
          <mxGeometry x="311.5" y="494" width="60" height="30" as="geometry" />
        </mxCell>
        <mxCell id="W7klxGYHlzmc_tSxLxQi-238" value="10.0.240.24/30" style="text;html=1;strokeColor=none;fillColor=none;align=center;verticalAlign=middle;whiteSpace=wrap;rounded=0;fontFamily=Lucida Console;rotation=30;" parent="1" vertex="1">
          <mxGeometry x="521" y="538" width="60" height="30" as="geometry" />
        </mxCell>
        <mxCell id="W7klxGYHlzmc_tSxLxQi-242" value="10.0.240.28/30" style="text;html=1;strokeColor=none;fillColor=none;align=center;verticalAlign=middle;whiteSpace=wrap;rounded=0;fontFamily=Lucida Console;rotation=0;" parent="1" vertex="1">
          <mxGeometry x="201" y="475" width="60" height="30" as="geometry" />
        </mxCell>
        <mxCell id="W7klxGYHlzmc_tSxLxQi-243" value="10.0.240.32/30" style="text;html=1;strokeColor=none;fillColor=none;align=center;verticalAlign=middle;whiteSpace=wrap;rounded=0;fontFamily=Lucida Console;" parent="1" vertex="1">
          <mxGeometry x="476" y="408" width="60" height="30" as="geometry" />
        </mxCell>
        <mxCell id="W7klxGYHlzmc_tSxLxQi-244" value="10.0.240.36/30" style="text;html=1;strokeColor=none;fillColor=none;align=center;verticalAlign=middle;whiteSpace=wrap;rounded=0;fontFamily=Lucida Console;rotation=15;" parent="1" vertex="1">
          <mxGeometry x="704" y="539" width="60" height="30" as="geometry" />
        </mxCell>
        <mxCell id="W7klxGYHlzmc_tSxLxQi-245" value="10.0.240.40/30" style="text;html=1;strokeColor=none;fillColor=none;align=center;verticalAlign=middle;whiteSpace=wrap;rounded=0;fontFamily=Lucida Console;rotation=0;" parent="1" vertex="1">
          <mxGeometry x="652" y="494" width="60" height="30" as="geometry" />
        </mxCell>
        <mxCell id="W7klxGYHlzmc_tSxLxQi-246" value="10.0.240.44/30" style="text;html=1;strokeColor=none;fillColor=none;align=center;verticalAlign=middle;whiteSpace=wrap;rounded=0;fontFamily=Lucida Console;rotation=-30;" parent="1" vertex="1">
          <mxGeometry x="426" y="541" width="60" height="30" as="geometry" />
        </mxCell>
        <mxCell id="W7klxGYHlzmc_tSxLxQi-247" value="10.0.240.48/30" style="text;html=1;strokeColor=none;fillColor=none;align=center;verticalAlign=middle;whiteSpace=wrap;rounded=0;fontFamily=Lucida Console;rotation=0;" parent="1" vertex="1">
          <mxGeometry x="756" y="475" width="60" height="30" as="geometry" />
        </mxCell>
        <mxCell id="W7klxGYHlzmc_tSxLxQi-248" value="10.0.240.52/30" style="text;html=1;strokeColor=none;fillColor=none;align=center;verticalAlign=middle;whiteSpace=wrap;rounded=0;fontFamily=Lucida Console;rotation=-20;" parent="1" vertex="1">
          <mxGeometry x="261" y="535" width="60" height="30" as="geometry" />
        </mxCell>
        <mxCell id="W7klxGYHlzmc_tSxLxQi-249" value="lo:10.0.255.104" style="text;html=1;strokeColor=none;fillColor=none;align=center;verticalAlign=middle;whiteSpace=wrap;rounded=0;fontFamily=Lucida Console;" parent="1" vertex="1">
          <mxGeometry x="235" y="790" width="80" height="30" as="geometry" />
        </mxCell>
        <mxCell id="W7klxGYHlzmc_tSxLxQi-250" value="lo:10.0.255.105" style="text;html=1;strokeColor=none;fillColor=none;align=left;verticalAlign=middle;whiteSpace=wrap;rounded=0;fontFamily=Lucida Console;" parent="1" vertex="1">
          <mxGeometry x="680" y="791" width="80" height="30" as="geometry" />
        </mxCell>
        <mxCell id="W7klxGYHlzmc_tSxLxQi-251" value="root STP,&lt;br&gt;&lt;div style=&quot;&quot;&gt;&lt;span style=&quot;background-color: initial;&quot;&gt;active HSRP&lt;/span&gt;&lt;/div&gt;" style="text;html=1;strokeColor=none;fillColor=none;align=right;verticalAlign=middle;whiteSpace=wrap;rounded=0;fontFamily=Lucida Console;" parent="1" vertex="1">
          <mxGeometry x="228" y="749" width="101" height="30" as="geometry" />
        </mxCell>
        <mxCell id="W7klxGYHlzmc_tSxLxQi-252" value="second priority STP,&lt;br&gt;standby HSRP" style="text;html=1;strokeColor=none;fillColor=none;align=left;verticalAlign=middle;whiteSpace=wrap;rounded=0;fontFamily=Lucida Console;" parent="1" vertex="1">
          <mxGeometry x="683.5" y="748" width="156.5" height="30" as="geometry" />
        </mxCell>
        <mxCell id="W7klxGYHlzmc_tSxLxQi-253" value="VLANS" style="text;html=1;strokeColor=none;fillColor=none;align=center;verticalAlign=middle;whiteSpace=wrap;rounded=0;fontFamily=Lucida Console;" parent="1" vertex="1">
          <mxGeometry x="514" y="852" width="100" height="30" as="geometry" />
        </mxCell>
        <mxCell id="W7klxGYHlzmc_tSxLxQi-254" value="VLANS" style="text;html=1;strokeColor=none;fillColor=none;align=center;verticalAlign=middle;whiteSpace=wrap;rounded=0;fontFamily=Lucida Console;" parent="1" vertex="1">
          <mxGeometry x="387" y="851" width="100" height="30" as="geometry" />
        </mxCell>
        <mxCell id="W7klxGYHlzmc_tSxLxQi-255" value="VLANS" style="text;html=1;strokeColor=none;fillColor=none;align=center;verticalAlign=middle;whiteSpace=wrap;rounded=0;fontFamily=Lucida Console;" parent="1" vertex="1">
          <mxGeometry x="629" y="865" width="100" height="30" as="geometry" />
        </mxCell>
        <mxCell id="W7klxGYHlzmc_tSxLxQi-256" value="VLANS" style="text;html=1;strokeColor=none;fillColor=none;align=center;verticalAlign=middle;whiteSpace=wrap;rounded=0;fontFamily=Lucida Console;" parent="1" vertex="1">
          <mxGeometry x="282" y="865" width="100" height="30" as="geometry" />
        </mxCell>
        <mxCell id="W7klxGYHlzmc_tSxLxQi-257" value="VLAN 10: 10.0.254.253&lt;br&gt;VLAN 100: 10.0.0.253&lt;br&gt;VLAN 110: 10.0.1.253" style="text;html=1;strokeColor=none;fillColor=none;align=right;verticalAlign=middle;whiteSpace=wrap;rounded=0;fontFamily=Lucida Console;" parent="1" vertex="1">
          <mxGeometry x="160" y="817" width="171" height="30" as="geometry" />
        </mxCell>
        <mxCell id="W7klxGYHlzmc_tSxLxQi-258" value="VLAN 10: 10.0.254.254&lt;br&gt;VLAN 100: 10.0.0.254&lt;br&gt;VLAN 110: 10.0.1.254" style="text;html=1;strokeColor=none;fillColor=none;align=left;verticalAlign=middle;whiteSpace=wrap;rounded=0;fontFamily=Lucida Console;" parent="1" vertex="1">
          <mxGeometry x="681" y="817" width="171" height="30" as="geometry" />
        </mxCell>
        <mxCell id="W7klxGYHlzmc_tSxLxQi-259" value="HSRP&lt;br&gt;VLAN 10: 10.0.254.1&lt;br&gt;VLAN 100: 10.0.0.1&lt;br&gt;VLAN 110: 10.0.1.1" style="text;html=1;strokeColor=none;fillColor=none;align=center;verticalAlign=middle;whiteSpace=wrap;rounded=0;fontFamily=Lucida Console;" parent="1" vertex="1">
          <mxGeometry x="421" y="807" width="171" height="30" as="geometry" />
        </mxCell>
        <mxCell id="W7klxGYHlzmc_tSxLxQi-260" value="&lt;b&gt;.33&lt;/b&gt;" style="text;html=1;strokeColor=none;fillColor=none;align=center;verticalAlign=middle;whiteSpace=wrap;rounded=0;fontFamily=Lucida Console;" parent="1" vertex="1">
          <mxGeometry x="413" y="404.5" width="23" height="30" as="geometry" />
        </mxCell>
        <mxCell id="W7klxGYHlzmc_tSxLxQi-261" value="&lt;b&gt;.37&lt;/b&gt;" style="text;html=1;strokeColor=none;fillColor=none;align=center;verticalAlign=middle;whiteSpace=wrap;rounded=0;fontFamily=Lucida Console;" parent="1" vertex="1">
          <mxGeometry x="420" y="431" width="23" height="30" as="geometry" />
        </mxCell>
        <mxCell id="W7klxGYHlzmc_tSxLxQi-262" value="&lt;b&gt;.25&lt;/b&gt;" style="text;html=1;strokeColor=none;fillColor=none;align=center;verticalAlign=middle;whiteSpace=wrap;rounded=0;fontFamily=Lucida Console;" parent="1" vertex="1">
          <mxGeometry x="420" y="452" width="23" height="30" as="geometry" />
        </mxCell>
        <mxCell id="W7klxGYHlzmc_tSxLxQi-263" value="&lt;b&gt;.21&lt;/b&gt;" style="text;html=1;strokeColor=none;fillColor=none;align=center;verticalAlign=middle;whiteSpace=wrap;rounded=0;fontFamily=Lucida Console;" parent="1" vertex="1">
          <mxGeometry x="358" y="475" width="23" height="30" as="geometry" />
        </mxCell>
        <mxCell id="W7klxGYHlzmc_tSxLxQi-264" value="&lt;b&gt;.29&lt;/b&gt;" style="text;html=1;strokeColor=none;fillColor=none;align=center;verticalAlign=middle;whiteSpace=wrap;rounded=0;fontFamily=Lucida Console;" parent="1" vertex="1">
          <mxGeometry x="300" y="464" width="23" height="30" as="geometry" />
        </mxCell>
        <mxCell id="W7klxGYHlzmc_tSxLxQi-265" value="&lt;b&gt;.30&lt;/b&gt;" style="text;html=1;strokeColor=none;fillColor=none;align=center;verticalAlign=middle;whiteSpace=wrap;rounded=0;fontFamily=Lucida Console;" parent="1" vertex="1">
          <mxGeometry x="150" y="550.5" width="23" height="30" as="geometry" />
        </mxCell>
        <mxCell id="W7klxGYHlzmc_tSxLxQi-266" value="&lt;b&gt;.54&lt;/b&gt;" style="text;html=1;strokeColor=none;fillColor=none;align=center;verticalAlign=middle;whiteSpace=wrap;rounded=0;fontFamily=Lucida Console;" parent="1" vertex="1">
          <mxGeometry x="167" y="589.5" width="23" height="30" as="geometry" />
        </mxCell>
        <mxCell id="W7klxGYHlzmc_tSxLxQi-268" value="&lt;b&gt;.53&lt;/b&gt;" style="text;html=1;strokeColor=none;fillColor=none;align=center;verticalAlign=middle;whiteSpace=wrap;rounded=0;fontFamily=Lucida Console;" parent="1" vertex="1">
          <mxGeometry x="556" y="435.5" width="23" height="30" as="geometry" />
        </mxCell>
        <mxCell id="W7klxGYHlzmc_tSxLxQi-269" value="&lt;b&gt;.34&lt;/b&gt;" style="text;html=1;strokeColor=none;fillColor=none;align=center;verticalAlign=middle;whiteSpace=wrap;rounded=0;fontFamily=Lucida Console;" parent="1" vertex="1">
          <mxGeometry x="576" y="406" width="23" height="30" as="geometry" />
        </mxCell>
        <mxCell id="W7klxGYHlzmc_tSxLxQi-270" value="&lt;b&gt;.45&lt;/b&gt;" style="text;html=1;strokeColor=none;fillColor=none;align=center;verticalAlign=middle;whiteSpace=wrap;rounded=0;fontFamily=Lucida Console;" parent="1" vertex="1">
          <mxGeometry x="594.5" y="461" width="23" height="30" as="geometry" />
        </mxCell>
        <mxCell id="W7klxGYHlzmc_tSxLxQi-271" value="&lt;b&gt;.41&lt;/b&gt;" style="text;html=1;strokeColor=none;fillColor=none;align=center;verticalAlign=middle;whiteSpace=wrap;rounded=0;fontFamily=Lucida Console;" parent="1" vertex="1">
          <mxGeometry x="657" y="475" width="23" height="30" as="geometry" />
        </mxCell>
        <mxCell id="W7klxGYHlzmc_tSxLxQi-272" value="&lt;b&gt;.49&lt;/b&gt;" style="text;html=1;strokeColor=none;fillColor=none;align=center;verticalAlign=middle;whiteSpace=wrap;rounded=0;fontFamily=Lucida Console;" parent="1" vertex="1">
          <mxGeometry x="711" y="452" width="23" height="30" as="geometry" />
        </mxCell>
        <mxCell id="W7klxGYHlzmc_tSxLxQi-273" value="&lt;b&gt;.50&lt;/b&gt;" style="text;html=1;strokeColor=none;fillColor=none;align=center;verticalAlign=middle;whiteSpace=wrap;rounded=0;fontFamily=Lucida Console;" parent="1" vertex="1">
          <mxGeometry x="840" y="550.5" width="23" height="30" as="geometry" />
        </mxCell>
        <mxCell id="W7klxGYHlzmc_tSxLxQi-274" value="&lt;b&gt;.38&lt;/b&gt;" style="text;html=1;strokeColor=none;fillColor=none;align=center;verticalAlign=middle;whiteSpace=wrap;rounded=0;fontFamily=Lucida Console;" parent="1" vertex="1">
          <mxGeometry x="810" y="589.5" width="23" height="30" as="geometry" />
        </mxCell>
        <mxCell id="W7klxGYHlzmc_tSxLxQi-275" value="&lt;b&gt;.22&lt;/b&gt;" style="text;html=1;strokeColor=none;fillColor=none;align=center;verticalAlign=middle;whiteSpace=wrap;rounded=0;fontFamily=Lucida Console;" parent="1" vertex="1">
          <mxGeometry x="321" y="555" width="23" height="30" as="geometry" />
        </mxCell>
        <mxCell id="W7klxGYHlzmc_tSxLxQi-276" value="&lt;b&gt;.46&lt;/b&gt;" style="text;html=1;strokeColor=none;fillColor=none;align=center;verticalAlign=middle;whiteSpace=wrap;rounded=0;fontFamily=Lucida Console;" parent="1" vertex="1">
          <mxGeometry x="404" y="538" width="23" height="30" as="geometry" />
        </mxCell>
        <mxCell id="W7klxGYHlzmc_tSxLxQi-278" value="&lt;b&gt;.9&lt;/b&gt;" style="text;html=1;strokeColor=none;fillColor=none;align=center;verticalAlign=middle;whiteSpace=wrap;rounded=0;fontFamily=Lucida Console;" parent="1" vertex="1">
          <mxGeometry x="421" y="580.5" width="23" height="30" as="geometry" />
        </mxCell>
        <mxCell id="W7klxGYHlzmc_tSxLxQi-279" value="&lt;b&gt;.17&lt;/b&gt;" style="text;html=1;strokeColor=none;fillColor=none;align=center;verticalAlign=middle;whiteSpace=wrap;rounded=0;fontFamily=Lucida Console;" parent="1" vertex="1">
          <mxGeometry x="420" y="622" width="23" height="30" as="geometry" />
        </mxCell>
        <mxCell id="W7klxGYHlzmc_tSxLxQi-280" value="&lt;b&gt;.1&lt;/b&gt;" style="text;html=1;strokeColor=none;fillColor=none;align=center;verticalAlign=middle;whiteSpace=wrap;rounded=0;fontFamily=Lucida Console;" parent="1" vertex="1">
          <mxGeometry x="321" y="627" width="23" height="30" as="geometry" />
        </mxCell>
        <mxCell id="W7klxGYHlzmc_tSxLxQi-281" value="&lt;b&gt;.2&lt;/b&gt;" style="text;html=1;strokeColor=none;fillColor=none;align=center;verticalAlign=middle;whiteSpace=wrap;rounded=0;fontFamily=Lucida Console;" parent="1" vertex="1">
          <mxGeometry x="318" y="712.5" width="23" height="30" as="geometry" />
        </mxCell>
        <mxCell id="W7klxGYHlzmc_tSxLxQi-282" value="&lt;b&gt;.6&lt;/b&gt;" style="text;html=1;strokeColor=none;fillColor=none;align=center;verticalAlign=middle;whiteSpace=wrap;rounded=0;fontFamily=Lucida Console;" parent="1" vertex="1">
          <mxGeometry x="387" y="735" width="23" height="30" as="geometry" />
        </mxCell>
        <mxCell id="W7klxGYHlzmc_tSxLxQi-283" value="&lt;b&gt;.5&lt;/b&gt;" style="text;html=1;strokeColor=none;fillColor=none;align=center;verticalAlign=middle;whiteSpace=wrap;rounded=0;fontFamily=Lucida Console;" parent="1" vertex="1">
          <mxGeometry x="607" y="626" width="23" height="30" as="geometry" />
        </mxCell>
        <mxCell id="W7klxGYHlzmc_tSxLxQi-284" value="&lt;b&gt;.13&lt;/b&gt;" style="text;html=1;strokeColor=none;fillColor=none;align=center;verticalAlign=middle;whiteSpace=wrap;rounded=0;fontFamily=Lucida Console;" parent="1" vertex="1">
          <mxGeometry x="667.5" y="627" width="23" height="30" as="geometry" />
        </mxCell>
        <mxCell id="W7klxGYHlzmc_tSxLxQi-285" value="&lt;b&gt;.42&lt;/b&gt;" style="text;html=1;strokeColor=none;fillColor=none;align=center;verticalAlign=middle;whiteSpace=wrap;rounded=0;fontFamily=Lucida Console;" parent="1" vertex="1">
          <mxGeometry x="667.5" y="552" width="23" height="30" as="geometry" />
        </mxCell>
        <mxCell id="W7klxGYHlzmc_tSxLxQi-286" value="&lt;b&gt;.26&lt;/b&gt;" style="text;html=1;strokeColor=none;fillColor=none;align=center;verticalAlign=middle;whiteSpace=wrap;rounded=0;fontFamily=Lucida Console;" parent="1" vertex="1">
          <mxGeometry x="594.5" y="539" width="23" height="30" as="geometry" />
        </mxCell>
        <mxCell id="W7klxGYHlzmc_tSxLxQi-287" value="&lt;b&gt;.10&lt;/b&gt;" style="text;html=1;strokeColor=none;fillColor=none;align=center;verticalAlign=middle;whiteSpace=wrap;rounded=0;fontFamily=Lucida Console;" parent="1" vertex="1">
          <mxGeometry x="568" y="580.5" width="23" height="30" as="geometry" />
        </mxCell>
        <mxCell id="W7klxGYHlzmc_tSxLxQi-288" value="&lt;b&gt;.18&lt;/b&gt;" style="text;html=1;strokeColor=none;fillColor=none;align=center;verticalAlign=middle;whiteSpace=wrap;rounded=0;fontFamily=Lucida Console;" parent="1" vertex="1">
          <mxGeometry x="598" y="735" width="23" height="30" as="geometry" />
        </mxCell>
        <mxCell id="W7klxGYHlzmc_tSxLxQi-289" value="&lt;b&gt;.14&lt;/b&gt;" style="text;html=1;strokeColor=none;fillColor=none;align=center;verticalAlign=middle;whiteSpace=wrap;rounded=0;fontFamily=Lucida Console;" parent="1" vertex="1">
          <mxGeometry x="667.5" y="718" width="23" height="30" as="geometry" />
        </mxCell>
        <mxCell id="W7klxGYHlzmc_tSxLxQi-290" value="&lt;b&gt;.10&lt;/b&gt;" style="text;html=1;strokeColor=none;fillColor=none;align=center;verticalAlign=middle;whiteSpace=wrap;rounded=0;fontFamily=Lucida Console;" parent="1" vertex="1">
          <mxGeometry x="371" y="1082" width="23" height="30" as="geometry" />
        </mxCell>
        <mxCell id="W7klxGYHlzmc_tSxLxQi-291" value="&lt;b&gt;.10&lt;/b&gt;" style="text;html=1;strokeColor=none;fillColor=none;align=center;verticalAlign=middle;whiteSpace=wrap;rounded=0;fontFamily=Lucida Console;" parent="1" vertex="1">
          <mxGeometry x="669" y="1080" width="23" height="30" as="geometry" />
        </mxCell>
        <mxCell id="1ylkWFcsWydQvVdOaWhc-1" value="" style="sketch=0;points=[[0.5,0,0],[1,0.5,0],[0.5,1,0],[0,0.5,0],[0.145,0.145,0],[0.8555,0.145,0],[0.855,0.8555,0],[0.145,0.855,0]];verticalLabelPosition=bottom;html=1;verticalAlign=top;aspect=fixed;align=center;pointerEvents=1;shape=mxgraph.cisco19.rect;prIcon=router;fillColor=#FAFAFA;strokeColor=#005073;" vertex="1" parent="1">
          <mxGeometry x="973" y="64" width="50" height="50" as="geometry" />
        </mxCell>
        <mxCell id="1ylkWFcsWydQvVdOaWhc-2" value="" style="sketch=0;points=[[0.5,0,0],[1,0.5,0],[0.5,1,0],[0,0.5,0],[0.145,0.145,0],[0.8555,0.145,0],[0.855,0.8555,0],[0.145,0.855,0]];verticalLabelPosition=bottom;html=1;verticalAlign=top;aspect=fixed;align=center;pointerEvents=1;shape=mxgraph.cisco19.rect;prIcon=router;fillColor=#FAFAFA;strokeColor=#005073;" vertex="1" parent="1">
          <mxGeometry x="1271" y="64" width="50" height="50" as="geometry" />
        </mxCell>
        <mxCell id="1ylkWFcsWydQvVdOaWhc-3" value="" style="sketch=0;points=[[0.5,0,0],[1,0.5,0],[0.5,1,0],[0,0.5,0],[0.145,0.145,0],[0.8555,0.145,0],[0.855,0.8555,0],[0.145,0.855,0]];verticalLabelPosition=bottom;html=1;verticalAlign=top;aspect=fixed;align=center;pointerEvents=1;shape=mxgraph.cisco19.rect;prIcon=router;fillColor=#FAFAFA;strokeColor=#005073;" vertex="1" parent="1">
          <mxGeometry x="973" y="235" width="50" height="50" as="geometry" />
        </mxCell>
        <mxCell id="1ylkWFcsWydQvVdOaWhc-4" value="" style="sketch=0;points=[[0.5,0,0],[1,0.5,0],[0.5,1,0],[0,0.5,0],[0.145,0.145,0],[0.8555,0.145,0],[0.855,0.8555,0],[0.145,0.855,0]];verticalLabelPosition=bottom;html=1;verticalAlign=top;aspect=fixed;align=center;pointerEvents=1;shape=mxgraph.cisco19.rect;prIcon=router;fillColor=#FAFAFA;strokeColor=#005073;" vertex="1" parent="1">
          <mxGeometry x="1271" y="235" width="50" height="50" as="geometry" />
        </mxCell>
        <mxCell id="1ylkWFcsWydQvVdOaWhc-5" value="" style="endArrow=none;html=1;rounded=0;exitX=1;exitY=0.5;exitDx=0;exitDy=0;exitPerimeter=0;entryX=0;entryY=0.5;entryDx=0;entryDy=0;entryPerimeter=0;startArrow=none;" edge="1" parent="1" source="1ylkWFcsWydQvVdOaWhc-14" target="1ylkWFcsWydQvVdOaWhc-4">
          <mxGeometry width="50" height="50" relative="1" as="geometry">
            <mxPoint x="1013" y="325" as="sourcePoint" />
            <mxPoint x="1063" y="275" as="targetPoint" />
          </mxGeometry>
        </mxCell>
        <mxCell id="1ylkWFcsWydQvVdOaWhc-6" value="" style="endArrow=none;html=1;rounded=0;exitX=0.5;exitY=0;exitDx=0;exitDy=0;exitPerimeter=0;entryX=0.5;entryY=1;entryDx=0;entryDy=0;entryPerimeter=0;startArrow=none;" edge="1" parent="1" source="1ylkWFcsWydQvVdOaWhc-10" target="1ylkWFcsWydQvVdOaWhc-1">
          <mxGeometry width="50" height="50" relative="1" as="geometry">
            <mxPoint x="1153" y="154" as="sourcePoint" />
            <mxPoint x="1203" y="104" as="targetPoint" />
          </mxGeometry>
        </mxCell>
        <mxCell id="1ylkWFcsWydQvVdOaWhc-8" value="e0/4" style="text;html=1;strokeColor=none;fillColor=none;align=left;verticalAlign=middle;whiteSpace=wrap;rounded=0;" vertex="1" parent="1">
          <mxGeometry x="1033" y="245" width="30" height="30" as="geometry" />
        </mxCell>
        <mxCell id="1ylkWFcsWydQvVdOaWhc-9" value="" style="endArrow=none;html=1;rounded=0;exitX=1;exitY=0.5;exitDx=0;exitDy=0;exitPerimeter=0;entryX=0;entryY=0.5;entryDx=0;entryDy=0;entryPerimeter=0;" edge="1" parent="1" source="1ylkWFcsWydQvVdOaWhc-3" target="1ylkWFcsWydQvVdOaWhc-8">
          <mxGeometry width="50" height="50" relative="1" as="geometry">
            <mxPoint x="1023" y="260" as="sourcePoint" />
            <mxPoint x="1271" y="260" as="targetPoint" />
          </mxGeometry>
        </mxCell>
        <mxCell id="1ylkWFcsWydQvVdOaWhc-10" value="e0/0" style="text;html=1;strokeColor=none;fillColor=none;align=center;verticalAlign=middle;whiteSpace=wrap;rounded=0;" vertex="1" parent="1">
          <mxGeometry x="983" y="121" width="30" height="20" as="geometry" />
        </mxCell>
        <mxCell id="1ylkWFcsWydQvVdOaWhc-11" value="" style="endArrow=none;html=1;rounded=0;exitX=0.5;exitY=0;exitDx=0;exitDy=0;exitPerimeter=0;entryX=0.5;entryY=1;entryDx=0;entryDy=0;entryPerimeter=0;startArrow=none;" edge="1" parent="1" source="1ylkWFcsWydQvVdOaWhc-12" target="1ylkWFcsWydQvVdOaWhc-10">
          <mxGeometry width="50" height="50" relative="1" as="geometry">
            <mxPoint x="998" y="235" as="sourcePoint" />
            <mxPoint x="998" y="114" as="targetPoint" />
          </mxGeometry>
        </mxCell>
        <mxCell id="1ylkWFcsWydQvVdOaWhc-12" value="e0/2" style="text;html=1;strokeColor=none;fillColor=none;align=center;verticalAlign=middle;whiteSpace=wrap;rounded=0;" vertex="1" parent="1">
          <mxGeometry x="983" y="207" width="30" height="20" as="geometry" />
        </mxCell>
        <mxCell id="1ylkWFcsWydQvVdOaWhc-13" value="" style="endArrow=none;html=1;rounded=0;exitX=0.5;exitY=0;exitDx=0;exitDy=0;exitPerimeter=0;entryX=0.5;entryY=1;entryDx=0;entryDy=0;entryPerimeter=0;" edge="1" parent="1" source="1ylkWFcsWydQvVdOaWhc-3" target="1ylkWFcsWydQvVdOaWhc-12">
          <mxGeometry width="50" height="50" relative="1" as="geometry">
            <mxPoint x="998" y="235" as="sourcePoint" />
            <mxPoint x="998" y="144" as="targetPoint" />
          </mxGeometry>
        </mxCell>
        <mxCell id="1ylkWFcsWydQvVdOaWhc-14" value="e0/4" style="text;html=1;strokeColor=none;fillColor=none;align=right;verticalAlign=middle;whiteSpace=wrap;rounded=0;" vertex="1" parent="1">
          <mxGeometry x="1233" y="248.5" width="30" height="23.5" as="geometry" />
        </mxCell>
        <mxCell id="1ylkWFcsWydQvVdOaWhc-15" value="" style="endArrow=none;html=1;rounded=0;exitX=1;exitY=0.5;exitDx=0;exitDy=0;exitPerimeter=0;entryX=0;entryY=0.5;entryDx=0;entryDy=0;entryPerimeter=0;startArrow=none;" edge="1" parent="1" source="1ylkWFcsWydQvVdOaWhc-8" target="1ylkWFcsWydQvVdOaWhc-14">
          <mxGeometry width="50" height="50" relative="1" as="geometry">
            <mxPoint x="1063" y="259" as="sourcePoint" />
            <mxPoint x="1271" y="260" as="targetPoint" />
          </mxGeometry>
        </mxCell>
        <mxCell id="1ylkWFcsWydQvVdOaWhc-20" value="" style="endArrow=none;html=1;rounded=0;exitX=1;exitY=0.5;exitDx=0;exitDy=0;exitPerimeter=0;entryX=0;entryY=0.5;entryDx=0;entryDy=0;entryPerimeter=0;startArrow=none;" edge="1" parent="1" source="1ylkWFcsWydQvVdOaWhc-23">
          <mxGeometry width="50" height="50" relative="1" as="geometry">
            <mxPoint x="1013" y="154" as="sourcePoint" />
            <mxPoint x="1271" y="89" as="targetPoint" />
          </mxGeometry>
        </mxCell>
        <mxCell id="1ylkWFcsWydQvVdOaWhc-21" value="e0/4" style="text;html=1;strokeColor=none;fillColor=none;align=left;verticalAlign=middle;whiteSpace=wrap;rounded=0;" vertex="1" parent="1">
          <mxGeometry x="1033" y="74" width="30" height="30" as="geometry" />
        </mxCell>
        <mxCell id="1ylkWFcsWydQvVdOaWhc-22" value="" style="endArrow=none;html=1;rounded=0;exitX=1;exitY=0.5;exitDx=0;exitDy=0;exitPerimeter=0;entryX=0;entryY=0.5;entryDx=0;entryDy=0;entryPerimeter=0;" edge="1" parent="1" target="1ylkWFcsWydQvVdOaWhc-21">
          <mxGeometry width="50" height="50" relative="1" as="geometry">
            <mxPoint x="1023" y="89" as="sourcePoint" />
            <mxPoint x="1271" y="89" as="targetPoint" />
          </mxGeometry>
        </mxCell>
        <mxCell id="1ylkWFcsWydQvVdOaWhc-23" value="e0/4" style="text;html=1;strokeColor=none;fillColor=none;align=right;verticalAlign=middle;whiteSpace=wrap;rounded=0;" vertex="1" parent="1">
          <mxGeometry x="1233" y="77.5" width="30" height="23.5" as="geometry" />
        </mxCell>
        <mxCell id="1ylkWFcsWydQvVdOaWhc-24" value="" style="endArrow=none;html=1;rounded=0;exitX=1;exitY=0.5;exitDx=0;exitDy=0;exitPerimeter=0;entryX=0;entryY=0.5;entryDx=0;entryDy=0;entryPerimeter=0;startArrow=none;" edge="1" parent="1" source="1ylkWFcsWydQvVdOaWhc-21" target="1ylkWFcsWydQvVdOaWhc-23">
          <mxGeometry width="50" height="50" relative="1" as="geometry">
            <mxPoint x="1063" y="88" as="sourcePoint" />
            <mxPoint x="1271" y="89" as="targetPoint" />
          </mxGeometry>
        </mxCell>
        <mxCell id="1ylkWFcsWydQvVdOaWhc-30" value="" style="endArrow=none;html=1;rounded=0;exitX=0.5;exitY=0;exitDx=0;exitDy=0;exitPerimeter=0;entryX=0.5;entryY=1;entryDx=0;entryDy=0;entryPerimeter=0;startArrow=none;" edge="1" parent="1" source="1ylkWFcsWydQvVdOaWhc-31">
          <mxGeometry width="50" height="50" relative="1" as="geometry">
            <mxPoint x="1452" y="154" as="sourcePoint" />
            <mxPoint x="1297" y="114" as="targetPoint" />
          </mxGeometry>
        </mxCell>
        <mxCell id="1ylkWFcsWydQvVdOaWhc-31" value="e0/0" style="text;html=1;strokeColor=none;fillColor=none;align=center;verticalAlign=middle;whiteSpace=wrap;rounded=0;" vertex="1" parent="1">
          <mxGeometry x="1282" y="121" width="30" height="20" as="geometry" />
        </mxCell>
        <mxCell id="1ylkWFcsWydQvVdOaWhc-32" value="" style="endArrow=none;html=1;rounded=0;exitX=0.5;exitY=0;exitDx=0;exitDy=0;exitPerimeter=0;entryX=0.5;entryY=1;entryDx=0;entryDy=0;entryPerimeter=0;startArrow=none;" edge="1" parent="1" source="1ylkWFcsWydQvVdOaWhc-33" target="1ylkWFcsWydQvVdOaWhc-31">
          <mxGeometry width="50" height="50" relative="1" as="geometry">
            <mxPoint x="1297" y="235" as="sourcePoint" />
            <mxPoint x="1297" y="114" as="targetPoint" />
          </mxGeometry>
        </mxCell>
        <mxCell id="1ylkWFcsWydQvVdOaWhc-33" value="e0/2" style="text;html=1;strokeColor=none;fillColor=none;align=center;verticalAlign=middle;whiteSpace=wrap;rounded=0;" vertex="1" parent="1">
          <mxGeometry x="1282" y="207" width="30" height="20" as="geometry" />
        </mxCell>
        <mxCell id="1ylkWFcsWydQvVdOaWhc-34" value="" style="endArrow=none;html=1;rounded=0;exitX=0.5;exitY=0;exitDx=0;exitDy=0;exitPerimeter=0;entryX=0.5;entryY=1;entryDx=0;entryDy=0;entryPerimeter=0;" edge="1" parent="1" target="1ylkWFcsWydQvVdOaWhc-33">
          <mxGeometry width="50" height="50" relative="1" as="geometry">
            <mxPoint x="1297" y="235" as="sourcePoint" />
            <mxPoint x="1297" y="144" as="targetPoint" />
          </mxGeometry>
        </mxCell>
        <mxCell id="1ylkWFcsWydQvVdOaWhc-39" value="" style="endArrow=none;html=1;rounded=0;startArrow=none;entryX=0;entryY=0.5;entryDx=0;entryDy=0;entryPerimeter=0;exitX=1;exitY=0.5;exitDx=0;exitDy=0;exitPerimeter=0;" edge="1" parent="1" target="1ylkWFcsWydQvVdOaWhc-1" source="1ylkWFcsWydQvVdOaWhc-108">
          <mxGeometry width="50" height="50" relative="1" as="geometry">
            <mxPoint x="380" y="90" as="sourcePoint" />
            <mxPoint x="930" y="100" as="targetPoint" />
          </mxGeometry>
        </mxCell>
        <mxCell id="1ylkWFcsWydQvVdOaWhc-42" value="10.2.240.8/30" style="text;html=1;strokeColor=none;fillColor=none;align=center;verticalAlign=middle;whiteSpace=wrap;rounded=0;fontFamily=Lucida Console;" vertex="1" parent="1">
          <mxGeometry x="1113" y="235" width="60" height="30" as="geometry" />
        </mxCell>
        <mxCell id="1ylkWFcsWydQvVdOaWhc-46" value="10.2.240.4/30" style="text;html=1;strokeColor=none;fillColor=none;align=center;verticalAlign=middle;whiteSpace=wrap;rounded=0;fontFamily=Lucida Console;" vertex="1" parent="1">
          <mxGeometry x="1019.5" y="161" width="60" height="30" as="geometry" />
        </mxCell>
        <mxCell id="1ylkWFcsWydQvVdOaWhc-48" value="10.2.240.0/30" style="text;html=1;strokeColor=none;fillColor=none;align=center;verticalAlign=middle;whiteSpace=wrap;rounded=0;fontFamily=Lucida Console;" vertex="1" parent="1">
          <mxGeometry x="1118" y="67" width="60" height="30" as="geometry" />
        </mxCell>
        <mxCell id="1ylkWFcsWydQvVdOaWhc-50" value="&lt;b&gt;.1&lt;/b&gt;" style="text;html=1;strokeColor=none;fillColor=none;align=center;verticalAlign=middle;whiteSpace=wrap;rounded=0;fontFamily=Lucida Console;" vertex="1" parent="1">
          <mxGeometry x="1055" y="63.5" width="23" height="30" as="geometry" />
        </mxCell>
        <mxCell id="1ylkWFcsWydQvVdOaWhc-53" value="&lt;b&gt;.5&lt;/b&gt;" style="text;html=1;strokeColor=none;fillColor=none;align=center;verticalAlign=middle;whiteSpace=wrap;rounded=0;fontFamily=Lucida Console;" vertex="1" parent="1">
          <mxGeometry x="1000" y="134" width="23" height="30" as="geometry" />
        </mxCell>
        <mxCell id="1ylkWFcsWydQvVdOaWhc-55" value="&lt;b&gt;.2&lt;/b&gt;" style="text;html=1;strokeColor=none;fillColor=none;align=center;verticalAlign=middle;whiteSpace=wrap;rounded=0;fontFamily=Lucida Console;" vertex="1" parent="1">
          <mxGeometry x="1218" y="65" width="23" height="30" as="geometry" />
        </mxCell>
        <mxCell id="1ylkWFcsWydQvVdOaWhc-57" value="&lt;b&gt;.13&lt;/b&gt;" style="text;html=1;strokeColor=none;fillColor=none;align=center;verticalAlign=middle;whiteSpace=wrap;rounded=0;fontFamily=Lucida Console;" vertex="1" parent="1">
          <mxGeometry x="1299" y="134" width="23" height="30" as="geometry" />
        </mxCell>
        <mxCell id="1ylkWFcsWydQvVdOaWhc-58" value="&lt;b&gt;.6&lt;/b&gt;" style="text;html=1;strokeColor=none;fillColor=none;align=center;verticalAlign=middle;whiteSpace=wrap;rounded=0;fontFamily=Lucida Console;" vertex="1" parent="1">
          <mxGeometry x="968" y="188" width="23" height="30" as="geometry" />
        </mxCell>
        <mxCell id="1ylkWFcsWydQvVdOaWhc-60" value="&lt;b&gt;.9&lt;/b&gt;" style="text;html=1;strokeColor=none;fillColor=none;align=center;verticalAlign=middle;whiteSpace=wrap;rounded=0;fontFamily=Lucida Console;" vertex="1" parent="1">
          <mxGeometry x="1063" y="239.5" width="23" height="30" as="geometry" />
        </mxCell>
        <mxCell id="1ylkWFcsWydQvVdOaWhc-61" value="&lt;b&gt;.14&lt;/b&gt;" style="text;html=1;strokeColor=none;fillColor=none;align=center;verticalAlign=middle;whiteSpace=wrap;rounded=0;fontFamily=Lucida Console;" vertex="1" parent="1">
          <mxGeometry x="1299" y="182" width="23" height="30" as="geometry" />
        </mxCell>
        <mxCell id="1ylkWFcsWydQvVdOaWhc-63" value="&lt;b&gt;.10&lt;/b&gt;" style="text;html=1;strokeColor=none;fillColor=none;align=center;verticalAlign=middle;whiteSpace=wrap;rounded=0;fontFamily=Lucida Console;" vertex="1" parent="1">
          <mxGeometry x="1210" y="239.5" width="23" height="30" as="geometry" />
        </mxCell>
        <mxCell id="1ylkWFcsWydQvVdOaWhc-72" value="" style="endArrow=none;html=1;rounded=0;entryX=0;entryY=0.5;entryDx=0;entryDy=0;entryPerimeter=0;exitX=1;exitY=0.5;exitDx=0;exitDy=0;exitPerimeter=0;startArrow=none;" edge="1" parent="1" source="1ylkWFcsWydQvVdOaWhc-106" target="1ylkWFcsWydQvVdOaWhc-3">
          <mxGeometry width="50" height="50" relative="1" as="geometry">
            <mxPoint x="690" y="260" as="sourcePoint" />
            <mxPoint x="950" y="260" as="targetPoint" />
          </mxGeometry>
        </mxCell>
        <mxCell id="1ylkWFcsWydQvVdOaWhc-73" value="" style="endArrow=none;html=1;rounded=0;exitX=0.5;exitY=0;exitDx=0;exitDy=0;exitPerimeter=0;entryX=0.5;entryY=1;entryDx=0;entryDy=0;entryPerimeter=0;startArrow=none;" edge="1" parent="1" source="1ylkWFcsWydQvVdOaWhc-95" target="LB4oUW9Qehg8nWZua1mU-2">
          <mxGeometry width="50" height="50" relative="1" as="geometry">
            <mxPoint x="870" y="330" as="sourcePoint" />
            <mxPoint x="920" y="280" as="targetPoint" />
          </mxGeometry>
        </mxCell>
        <mxCell id="1ylkWFcsWydQvVdOaWhc-74" value="" style="endArrow=none;html=1;rounded=0;exitX=0.5;exitY=0;exitDx=0;exitDy=0;exitPerimeter=0;entryX=0.5;entryY=1;entryDx=0;entryDy=0;entryPerimeter=0;startArrow=none;" edge="1" parent="1" source="1ylkWFcsWydQvVdOaWhc-80" target="LB4oUW9Qehg8nWZua1mU-1">
          <mxGeometry width="50" height="50" relative="1" as="geometry">
            <mxPoint x="920" y="380" as="sourcePoint" />
            <mxPoint x="356" y="170" as="targetPoint" />
          </mxGeometry>
        </mxCell>
        <mxCell id="1ylkWFcsWydQvVdOaWhc-75" value="" style="endArrow=none;html=1;rounded=0;exitX=0.855;exitY=0.8555;exitDx=0;exitDy=0;exitPerimeter=0;entryX=0.145;entryY=0.145;entryDx=0;entryDy=0;entryPerimeter=0;startArrow=none;" edge="1" parent="1" source="1ylkWFcsWydQvVdOaWhc-87" target="LB4oUW9Qehg8nWZua1mU-2">
          <mxGeometry width="50" height="50" relative="1" as="geometry">
            <mxPoint x="880" y="220" as="sourcePoint" />
            <mxPoint x="930" y="170" as="targetPoint" />
          </mxGeometry>
        </mxCell>
        <mxCell id="1ylkWFcsWydQvVdOaWhc-77" value="" style="rounded=0;whiteSpace=wrap;html=1;fillColor=none;" vertex="1" parent="1">
          <mxGeometry x="1084" y="807" width="179" height="60" as="geometry" />
        </mxCell>
        <mxCell id="1ylkWFcsWydQvVdOaWhc-78" value="&lt;b&gt;R22&lt;/b&gt;" style="text;html=1;strokeColor=none;fillColor=none;align=right;verticalAlign=middle;whiteSpace=wrap;rounded=0;" vertex="1" parent="1">
          <mxGeometry x="294.5" y="68" width="30" height="30" as="geometry" />
        </mxCell>
        <mxCell id="1ylkWFcsWydQvVdOaWhc-79" value="lo:10.1.63.22" style="text;html=1;strokeColor=none;fillColor=none;align=center;verticalAlign=middle;whiteSpace=wrap;rounded=0;fontFamily=Lucida Console;" vertex="1" parent="1">
          <mxGeometry x="232.5" y="77" width="87.5" height="39" as="geometry" />
        </mxCell>
        <mxCell id="1ylkWFcsWydQvVdOaWhc-80" value="e0/0" style="text;html=1;strokeColor=none;fillColor=none;align=center;verticalAlign=middle;whiteSpace=wrap;rounded=0;" vertex="1" parent="1">
          <mxGeometry x="341" y="121" width="30" height="20" as="geometry" />
        </mxCell>
        <mxCell id="1ylkWFcsWydQvVdOaWhc-81" value="" style="endArrow=none;html=1;rounded=0;exitX=0.5;exitY=0;exitDx=0;exitDy=0;exitPerimeter=0;entryX=0.5;entryY=1;entryDx=0;entryDy=0;entryPerimeter=0;startArrow=none;" edge="1" parent="1" source="1ylkWFcsWydQvVdOaWhc-82" target="1ylkWFcsWydQvVdOaWhc-80">
          <mxGeometry width="50" height="50" relative="1" as="geometry">
            <mxPoint x="356" y="405" as="sourcePoint" />
            <mxPoint x="356" y="115" as="targetPoint" />
          </mxGeometry>
        </mxCell>
        <mxCell id="1ylkWFcsWydQvVdOaWhc-82" value="e0/2" style="text;html=1;strokeColor=none;fillColor=none;align=center;verticalAlign=middle;whiteSpace=wrap;rounded=0;" vertex="1" parent="1">
          <mxGeometry x="340.5" y="378" width="30" height="20" as="geometry" />
        </mxCell>
        <mxCell id="1ylkWFcsWydQvVdOaWhc-83" value="" style="endArrow=none;html=1;rounded=0;exitX=0.5;exitY=0;exitDx=0;exitDy=0;exitPerimeter=0;entryX=0.5;entryY=1;entryDx=0;entryDy=0;entryPerimeter=0;" edge="1" parent="1" source="LB4oUW9Qehg8nWZua1mU-3" target="1ylkWFcsWydQvVdOaWhc-82">
          <mxGeometry width="50" height="50" relative="1" as="geometry">
            <mxPoint x="356" y="405" as="sourcePoint" />
            <mxPoint x="356" y="141.00000000000006" as="targetPoint" />
          </mxGeometry>
        </mxCell>
        <mxCell id="1ylkWFcsWydQvVdOaWhc-85" value="e0/1" style="text;html=1;strokeColor=none;fillColor=none;align=center;verticalAlign=middle;whiteSpace=wrap;rounded=0;" vertex="1" parent="1">
          <mxGeometry x="379" y="111" width="40" height="21" as="geometry" />
        </mxCell>
        <mxCell id="1ylkWFcsWydQvVdOaWhc-86" value="" style="endArrow=none;html=1;rounded=0;exitX=0.855;exitY=0.8555;exitDx=0;exitDy=0;exitPerimeter=0;entryX=0.145;entryY=0.145;entryDx=0;entryDy=0;entryPerimeter=0;" edge="1" parent="1" source="LB4oUW9Qehg8nWZua1mU-1" target="1ylkWFcsWydQvVdOaWhc-85">
          <mxGeometry width="50" height="50" relative="1" as="geometry">
            <mxPoint x="373.7499999999999" y="107.77500000000009" as="sourcePoint" />
            <mxPoint x="636.25" y="242.2500000000001" as="targetPoint" />
          </mxGeometry>
        </mxCell>
        <mxCell id="1ylkWFcsWydQvVdOaWhc-87" value="e0/1" style="text;html=1;strokeColor=none;fillColor=none;align=center;verticalAlign=middle;whiteSpace=wrap;rounded=0;" vertex="1" parent="1">
          <mxGeometry x="591" y="218" width="40" height="21" as="geometry" />
        </mxCell>
        <mxCell id="1ylkWFcsWydQvVdOaWhc-88" value="" style="endArrow=none;html=1;rounded=0;exitX=0.855;exitY=0.8555;exitDx=0;exitDy=0;exitPerimeter=0;entryX=0.145;entryY=0.145;entryDx=0;entryDy=0;entryPerimeter=0;startArrow=none;" edge="1" parent="1" source="1ylkWFcsWydQvVdOaWhc-85" target="1ylkWFcsWydQvVdOaWhc-87">
          <mxGeometry width="50" height="50" relative="1" as="geometry">
            <mxPoint x="413.20000000000005" y="128.96550000000002" as="sourcePoint" />
            <mxPoint x="636.25" y="242.2500000000001" as="targetPoint" />
          </mxGeometry>
        </mxCell>
        <mxCell id="1ylkWFcsWydQvVdOaWhc-89" value="&lt;b&gt;R21&lt;br&gt;&lt;/b&gt;" style="text;html=1;strokeColor=none;fillColor=none;align=left;verticalAlign=middle;whiteSpace=wrap;rounded=0;" vertex="1" parent="1">
          <mxGeometry x="602" y="239" width="30" height="30" as="geometry" />
        </mxCell>
        <mxCell id="1ylkWFcsWydQvVdOaWhc-91" value="lo:10.1.127.21" style="text;html=1;strokeColor=none;fillColor=none;align=center;verticalAlign=middle;whiteSpace=wrap;rounded=0;fontFamily=Lucida Console;" vertex="1" parent="1">
          <mxGeometry x="534.5" y="255" width="80" height="30" as="geometry" />
        </mxCell>
        <mxCell id="1ylkWFcsWydQvVdOaWhc-93" value="e0/2" style="text;html=1;strokeColor=none;fillColor=none;align=right;verticalAlign=middle;whiteSpace=wrap;rounded=0;" vertex="1" parent="1">
          <mxGeometry x="692" y="248.5" width="30" height="23.5" as="geometry" />
        </mxCell>
        <mxCell id="1ylkWFcsWydQvVdOaWhc-94" value="" style="endArrow=none;html=1;rounded=0;entryX=0;entryY=0.5;entryDx=0;entryDy=0;entryPerimeter=0;exitX=1;exitY=0.5;exitDx=0;exitDy=0;exitPerimeter=0;" edge="1" parent="1" source="LB4oUW9Qehg8nWZua1mU-2" target="1ylkWFcsWydQvVdOaWhc-93">
          <mxGeometry width="50" height="50" relative="1" as="geometry">
            <mxPoint x="679.0000000000001" y="260" as="sourcePoint" />
            <mxPoint x="973" y="260" as="targetPoint" />
          </mxGeometry>
        </mxCell>
        <mxCell id="1ylkWFcsWydQvVdOaWhc-95" value="e0/0" style="text;html=1;strokeColor=none;fillColor=none;align=center;verticalAlign=middle;whiteSpace=wrap;rounded=0;" vertex="1" parent="1">
          <mxGeometry x="639" y="290" width="30" height="20" as="geometry" />
        </mxCell>
        <mxCell id="1ylkWFcsWydQvVdOaWhc-96" value="" style="endArrow=none;html=1;rounded=0;exitX=0.5;exitY=0;exitDx=0;exitDy=0;exitPerimeter=0;entryX=0.5;entryY=1;entryDx=0;entryDy=0;entryPerimeter=0;startArrow=none;" edge="1" parent="1" source="1ylkWFcsWydQvVdOaWhc-97" target="1ylkWFcsWydQvVdOaWhc-95">
          <mxGeometry width="50" height="50" relative="1" as="geometry">
            <mxPoint x="654" y="405" as="sourcePoint" />
            <mxPoint x="654" y="285" as="targetPoint" />
          </mxGeometry>
        </mxCell>
        <mxCell id="1ylkWFcsWydQvVdOaWhc-97" value="e0/2" style="text;html=1;strokeColor=none;fillColor=none;align=center;verticalAlign=middle;whiteSpace=wrap;rounded=0;" vertex="1" parent="1">
          <mxGeometry x="639.5" y="378" width="30" height="20" as="geometry" />
        </mxCell>
        <mxCell id="1ylkWFcsWydQvVdOaWhc-98" value="" style="endArrow=none;html=1;rounded=0;exitX=0.5;exitY=0;exitDx=0;exitDy=0;exitPerimeter=0;entryX=0.5;entryY=1;entryDx=0;entryDy=0;entryPerimeter=0;" edge="1" parent="1" source="LB4oUW9Qehg8nWZua1mU-4" target="1ylkWFcsWydQvVdOaWhc-97">
          <mxGeometry width="50" height="50" relative="1" as="geometry">
            <mxPoint x="654" y="405" as="sourcePoint" />
            <mxPoint x="654" y="310" as="targetPoint" />
          </mxGeometry>
        </mxCell>
        <mxCell id="1ylkWFcsWydQvVdOaWhc-101" value="172.16.0.0/30" style="text;html=1;strokeColor=none;fillColor=none;align=center;verticalAlign=middle;whiteSpace=wrap;rounded=0;fontFamily=Lucida Console;" vertex="1" parent="1">
          <mxGeometry x="569" y="330" width="60" height="30" as="geometry" />
        </mxCell>
        <mxCell id="1ylkWFcsWydQvVdOaWhc-102" value="172.16.0.4/30" style="text;html=1;strokeColor=none;fillColor=none;align=center;verticalAlign=middle;whiteSpace=wrap;rounded=0;fontFamily=Lucida Console;" vertex="1" parent="1">
          <mxGeometry x="376" y="248.5" width="60" height="30" as="geometry" />
        </mxCell>
        <mxCell id="1ylkWFcsWydQvVdOaWhc-103" value="172.16.0.8/30" style="text;html=1;strokeColor=none;fillColor=none;align=center;verticalAlign=middle;whiteSpace=wrap;rounded=0;fontFamily=Lucida Console;" vertex="1" parent="1">
          <mxGeometry x="436" y="177" width="60" height="30" as="geometry" />
        </mxCell>
        <mxCell id="1ylkWFcsWydQvVdOaWhc-104" value="172.16.0.12/30" style="text;html=1;strokeColor=none;fillColor=none;align=center;verticalAlign=middle;whiteSpace=wrap;rounded=0;fontFamily=Lucida Console;" vertex="1" parent="1">
          <mxGeometry x="670" y="93.5" width="60" height="30" as="geometry" />
        </mxCell>
        <mxCell id="1ylkWFcsWydQvVdOaWhc-105" value="172.16.0.16/30" style="text;html=1;strokeColor=none;fillColor=none;align=center;verticalAlign=middle;whiteSpace=wrap;rounded=0;fontFamily=Lucida Console;" vertex="1" parent="1">
          <mxGeometry x="800" y="235" width="60" height="30" as="geometry" />
        </mxCell>
        <mxCell id="1ylkWFcsWydQvVdOaWhc-106" value="e0/0" style="text;html=1;strokeColor=none;fillColor=none;align=right;verticalAlign=middle;whiteSpace=wrap;rounded=0;" vertex="1" parent="1">
          <mxGeometry x="933.5" y="248.5" width="30" height="23.5" as="geometry" />
        </mxCell>
        <mxCell id="1ylkWFcsWydQvVdOaWhc-107" value="" style="endArrow=none;html=1;rounded=0;entryX=0;entryY=0.5;entryDx=0;entryDy=0;entryPerimeter=0;exitX=1;exitY=0.5;exitDx=0;exitDy=0;exitPerimeter=0;startArrow=none;" edge="1" parent="1" source="1ylkWFcsWydQvVdOaWhc-93" target="1ylkWFcsWydQvVdOaWhc-106">
          <mxGeometry width="50" height="50" relative="1" as="geometry">
            <mxPoint x="722" y="260.25" as="sourcePoint" />
            <mxPoint x="973" y="260" as="targetPoint" />
          </mxGeometry>
        </mxCell>
        <mxCell id="1ylkWFcsWydQvVdOaWhc-108" value="e0/0" style="text;html=1;strokeColor=none;fillColor=none;align=right;verticalAlign=middle;whiteSpace=wrap;rounded=0;" vertex="1" parent="1">
          <mxGeometry x="933.5" y="77.5" width="30" height="23.5" as="geometry" />
        </mxCell>
        <mxCell id="1ylkWFcsWydQvVdOaWhc-109" value="" style="endArrow=none;html=1;rounded=0;startArrow=none;entryX=0;entryY=0.5;entryDx=0;entryDy=0;entryPerimeter=0;exitX=1;exitY=0.5;exitDx=0;exitDy=0;exitPerimeter=0;" edge="1" parent="1" source="1ylkWFcsWydQvVdOaWhc-110" target="1ylkWFcsWydQvVdOaWhc-108">
          <mxGeometry width="50" height="50" relative="1" as="geometry">
            <mxPoint x="381" y="90" as="sourcePoint" />
            <mxPoint x="973" y="89" as="targetPoint" />
          </mxGeometry>
        </mxCell>
        <mxCell id="1ylkWFcsWydQvVdOaWhc-110" value="e0/2" style="text;html=1;strokeColor=none;fillColor=none;align=center;verticalAlign=middle;whiteSpace=wrap;rounded=0;" vertex="1" parent="1">
          <mxGeometry x="389" y="81" width="30" height="20" as="geometry" />
        </mxCell>
        <mxCell id="1ylkWFcsWydQvVdOaWhc-111" value="" style="endArrow=none;html=1;rounded=0;startArrow=none;entryX=0;entryY=0.5;entryDx=0;entryDy=0;entryPerimeter=0;exitX=1;exitY=0.5;exitDx=0;exitDy=0;exitPerimeter=0;" edge="1" parent="1" source="LB4oUW9Qehg8nWZua1mU-1" target="1ylkWFcsWydQvVdOaWhc-110">
          <mxGeometry width="50" height="50" relative="1" as="geometry">
            <mxPoint x="381" y="90" as="sourcePoint" />
            <mxPoint x="933.5" y="89.25" as="targetPoint" />
          </mxGeometry>
        </mxCell>
        <mxCell id="1ylkWFcsWydQvVdOaWhc-112" value="lo:10.2.255.23" style="text;html=1;strokeColor=none;fillColor=none;align=center;verticalAlign=middle;whiteSpace=wrap;rounded=0;fontFamily=Lucida Console;" vertex="1" parent="1">
          <mxGeometry x="953.5" y="38" width="80" height="30" as="geometry" />
        </mxCell>
        <mxCell id="1ylkWFcsWydQvVdOaWhc-113" value="&lt;b&gt;R23&lt;br&gt;&lt;/b&gt;" style="text;html=1;strokeColor=none;fillColor=none;align=left;verticalAlign=middle;whiteSpace=wrap;rounded=0;" vertex="1" parent="1">
          <mxGeometry x="949" y="98" width="30" height="30" as="geometry" />
        </mxCell>
        <mxCell id="1ylkWFcsWydQvVdOaWhc-114" value="lo:10.2.255.24" style="text;html=1;strokeColor=none;fillColor=none;align=center;verticalAlign=middle;whiteSpace=wrap;rounded=0;fontFamily=Lucida Console;" vertex="1" parent="1">
          <mxGeometry x="1023" y="215" width="80" height="30" as="geometry" />
        </mxCell>
        <mxCell id="1ylkWFcsWydQvVdOaWhc-115" value="&lt;b&gt;R24&lt;br&gt;&lt;/b&gt;" style="text;html=1;strokeColor=none;fillColor=none;align=left;verticalAlign=middle;whiteSpace=wrap;rounded=0;" vertex="1" parent="1">
          <mxGeometry x="953" y="276" width="30" height="30" as="geometry" />
        </mxCell>
        <mxCell id="1ylkWFcsWydQvVdOaWhc-116" value="10.2.240.12/30" style="text;html=1;strokeColor=none;fillColor=none;align=center;verticalAlign=middle;whiteSpace=wrap;rounded=0;fontFamily=Lucida Console;" vertex="1" parent="1">
          <mxGeometry x="1214" y="158" width="60" height="30" as="geometry" />
        </mxCell>
        <mxCell id="1ylkWFcsWydQvVdOaWhc-117" value="lo:10.2.255.25" style="text;html=1;strokeColor=none;fillColor=none;align=center;verticalAlign=middle;whiteSpace=wrap;rounded=0;fontFamily=Lucida Console;" vertex="1" parent="1">
          <mxGeometry x="1256" y="38" width="80" height="30" as="geometry" />
        </mxCell>
        <mxCell id="1ylkWFcsWydQvVdOaWhc-118" value="&lt;b&gt;R25&lt;br&gt;&lt;/b&gt;" style="text;html=1;strokeColor=none;fillColor=none;align=left;verticalAlign=middle;whiteSpace=wrap;rounded=0;" vertex="1" parent="1">
          <mxGeometry x="1244" y="93.5" width="30" height="30" as="geometry" />
        </mxCell>
        <mxCell id="1ylkWFcsWydQvVdOaWhc-119" value="lo:10.2.255.26" style="text;html=1;strokeColor=none;fillColor=none;align=center;verticalAlign=middle;whiteSpace=wrap;rounded=0;fontFamily=Lucida Console;" vertex="1" parent="1">
          <mxGeometry x="1194" y="218" width="80" height="30" as="geometry" />
        </mxCell>
        <mxCell id="1ylkWFcsWydQvVdOaWhc-120" value="&lt;b&gt;R26&lt;br&gt;&lt;/b&gt;" style="text;html=1;strokeColor=none;fillColor=none;align=left;verticalAlign=middle;whiteSpace=wrap;rounded=0;" vertex="1" parent="1">
          <mxGeometry x="1312" y="272" width="30" height="30" as="geometry" />
        </mxCell>
        <mxCell id="1ylkWFcsWydQvVdOaWhc-122" value="&lt;b&gt;.18&lt;/b&gt;" style="text;html=1;strokeColor=none;fillColor=none;align=center;verticalAlign=middle;whiteSpace=wrap;rounded=0;fontFamily=Lucida Console;" vertex="1" parent="1">
          <mxGeometry x="913" y="235" width="23" height="30" as="geometry" />
        </mxCell>
        <mxCell id="1ylkWFcsWydQvVdOaWhc-123" value="&lt;b&gt;.17&lt;/b&gt;" style="text;html=1;strokeColor=none;fillColor=none;align=center;verticalAlign=middle;whiteSpace=wrap;rounded=0;fontFamily=Lucida Console;" vertex="1" parent="1">
          <mxGeometry x="722.5" y="233" width="23" height="30" as="geometry" />
        </mxCell>
        <mxCell id="1ylkWFcsWydQvVdOaWhc-124" value="&lt;b&gt;.14&lt;/b&gt;" style="text;html=1;strokeColor=none;fillColor=none;align=center;verticalAlign=middle;whiteSpace=wrap;rounded=0;fontFamily=Lucida Console;" vertex="1" parent="1">
          <mxGeometry x="910.5" y="63.5" width="23" height="30" as="geometry" />
        </mxCell>
        <mxCell id="1ylkWFcsWydQvVdOaWhc-125" value="&lt;b&gt;.9&lt;/b&gt;" style="text;html=1;strokeColor=none;fillColor=none;align=center;verticalAlign=middle;whiteSpace=wrap;rounded=0;fontFamily=Lucida Console;" vertex="1" parent="1">
          <mxGeometry x="413" y="106.5" width="23" height="30" as="geometry" />
        </mxCell>
        <mxCell id="1ylkWFcsWydQvVdOaWhc-127" value="&lt;b&gt;.13&lt;/b&gt;" style="text;html=1;strokeColor=none;fillColor=none;align=center;verticalAlign=middle;whiteSpace=wrap;rounded=0;fontFamily=Lucida Console;" vertex="1" parent="1">
          <mxGeometry x="421" y="67" width="23" height="30" as="geometry" />
        </mxCell>
        <mxCell id="1ylkWFcsWydQvVdOaWhc-128" value="&lt;b&gt;.10&lt;/b&gt;" style="text;html=1;strokeColor=none;fillColor=none;align=center;verticalAlign=middle;whiteSpace=wrap;rounded=0;fontFamily=Lucida Console;" vertex="1" parent="1">
          <mxGeometry x="626" y="205" width="23" height="30" as="geometry" />
        </mxCell>
        <mxCell id="1ylkWFcsWydQvVdOaWhc-129" value="&lt;b&gt;.1&lt;/b&gt;" style="text;html=1;strokeColor=none;fillColor=none;align=center;verticalAlign=middle;whiteSpace=wrap;rounded=0;fontFamily=Lucida Console;" vertex="1" parent="1">
          <mxGeometry x="616" y="297" width="23" height="30" as="geometry" />
        </mxCell>
        <mxCell id="1ylkWFcsWydQvVdOaWhc-130" value="&lt;b&gt;.2&lt;/b&gt;" style="text;html=1;strokeColor=none;fillColor=none;align=center;verticalAlign=middle;whiteSpace=wrap;rounded=0;fontFamily=Lucida Console;" vertex="1" parent="1">
          <mxGeometry x="658" y="348" width="23" height="30" as="geometry" />
        </mxCell>
        <mxCell id="1ylkWFcsWydQvVdOaWhc-131" value="&lt;b&gt;.5&lt;/b&gt;" style="text;html=1;strokeColor=none;fillColor=none;align=center;verticalAlign=middle;whiteSpace=wrap;rounded=0;fontFamily=Lucida Console;" vertex="1" parent="1">
          <mxGeometry x="359" y="134" width="23" height="30" as="geometry" />
        </mxCell>
        <mxCell id="1ylkWFcsWydQvVdOaWhc-132" value="&lt;b&gt;.6&lt;/b&gt;" style="text;html=1;strokeColor=none;fillColor=none;align=center;verticalAlign=middle;whiteSpace=wrap;rounded=0;fontFamily=Lucida Console;" vertex="1" parent="1">
          <mxGeometry x="359" y="351" width="23" height="30" as="geometry" />
        </mxCell>
      </root>
    </mxGraphModel>
  </diagram>
</mxfile>
